<?xml version="1.0" encoding="utf-8"?>
<!-- Generator: Adobe Illustrator 19.1.0, SVG Export Plug-In . SVG Version: 6.00 Build 0)  -->
<svg version="1.1" id="Layer_1" xmlns="http://www.w3.org/2000/svg" xmlns:xlink="http://www.w3.org/1999/xlink" x="0px" y="0px"
	 viewBox="0 0 35.4 44.2" style="enable-background:new 0 0 35.4 44.2;" xml:space="preserve">
<style type="text/css">
	.st0{fill:#FFFFFF;}
</style>
<g>
	<path class="st0" d="M32.8,16.3c-0.4-2.6-1.3-4.9-2.7-7.1c-1.5-2.2-3.4-3.9-5.7-5.2c-3-1.6-6.1-2-9.4-1.3c-3.8,0.8-6.9,2.8-9.2,5.9
		C3.5,11.6,2.5,14.9,2.4,19c0.1,0.5,0.1,1.4,0.3,2.3c0.5,2.4,1.4,4.7,2.6,6.9c2.1,4,4.8,7.5,8,10.7c1,1,2.2,2,3.5,2.7
		c0.7,0.4,1.4,0.5,2.1,0c0.5-0.3,1.1-0.7,1.6-1c1.6-1.2,2.9-2.7,4.2-4.2c1.6-1.9,3.1-3.9,4.4-6.1c1.2-2,2.3-4.1,3.1-6.4
		C32.9,21.3,33.2,18.9,32.8,16.3z M17.7,27.4c-5.2,0-9.5-4.3-9.5-9.5c0-5.2,4.3-9.5,9.5-9.5c5.2,0,9.5,4.3,9.5,9.5
		C27.2,23.2,22.9,27.4,17.7,27.4z"/>
</g>
</svg>
