<?xml version="1.0" encoding="utf-8"?>
<!-- Generator: Adobe Illustrator 19.1.0, SVG Export Plug-In . SVG Version: 6.00 Build 0)  -->
<svg version="1.1" id="Layer_1" xmlns="http://www.w3.org/2000/svg" xmlns:xlink="http://www.w3.org/1999/xlink" x="0px" y="0px"
	 viewBox="0 0 43.7 28.6" style="enable-background:new 0 0 43.7 28.6;" xml:space="preserve">
<style type="text/css">
	.st0{fill:#FFFFFF;}
</style>
<g>
	<path class="st0" d="M6,25.9h31.7c1.2,0,2.2-1,2.2-2.2V8c0-0.5-0.3-0.7-0.7-0.4L22.9,18.9c-0.6,0.4-1.6,0.4-2.2,0L4.5,7.6
		C4.1,7.4,3.8,7.5,3.8,8v15.7C3.8,24.9,4.8,25.9,6,25.9z"/>
	<path class="st0" d="M4.3,2.6c-0.5,0-0.6,0.2-0.2,0.5l16.6,11.5c0.6,0.4,1.6,0.4,2.2,0L39.5,3.2c0.4-0.3,0.3-0.5-0.2-0.5H4.3z"/>
</g>
</svg>
