<?xml version="1.0" encoding="utf-8"?>
<!-- Generator: Adobe Illustrator 19.1.0, SVG Export Plug-In . SVG Version: 6.00 Build 0)  -->
<svg version="1.1" id="Layer_1" xmlns="http://www.w3.org/2000/svg" xmlns:xlink="http://www.w3.org/1999/xlink" x="0px" y="0px"
	 viewBox="0 0 43.7 40.6" style="enable-background:new 0 0 43.7 40.6;" xml:space="preserve">
<style type="text/css">
	.st0{fill:#FFFFFF;}
</style>
<g>
	<path class="st0" d="M10.7,33.1c-0.3-0.5-0.9-0.8-1.5-0.5c-0.5,0.3-0.8,0.9-0.5,1.5l2,3.3c0.3,0.5,0.9,0.8,1.5,0.5
		c0.5-0.3,0.8-0.9,0.5-1.5L10.7,33.1z"/>
	<path class="st0" d="M6.3,33.1c-0.3-0.5-0.9-0.8-1.5-0.5C4.3,32.8,4,33.5,4.3,34l2,3.3c0.3,0.5,0.9,0.8,1.5,0.5
		c0.5-0.3,0.8-0.9,0.5-1.5L6.3,33.1z"/>
	<path class="st0" d="M15.1,33.1c-0.3-0.5-0.9-0.8-1.5-0.5c-0.5,0.3-0.8,0.9-0.5,1.5l2,3.3c0.3,0.5,0.9,0.8,1.5,0.5
		c0.5-0.3,0.8-0.9,0.5-1.5L15.1,33.1z"/>
	<path class="st0" d="M22.3,35.9c-1.1-0.1-1.6-0.4-2.2-1.6c-0.3-0.5-0.6-1.2-0.6-1.2c-0.3-0.5-0.9-0.8-1.5-0.5
		c-0.5,0.3-0.8,0.9-0.5,1.5c0,0,0.2,0.4,0.5,1.1c1.5,2.8,3.3,2.8,5.4,2.8c1,0,2.2-0.2,3.6-0.9c-0.7-0.4-1.4-0.9-2.1-1.4
		C23.9,35.9,23,36,22.3,35.9z"/>
	<path class="st0" d="M38.6,31.7c-0.7-0.8-3.4-4.5-3.9-5c-0.5-0.6-2-1.5-3.5-0.4c-2,1.4-3.5,4.8-8.5-3.4c-4.9-8.3-1.4-8.4,0.8-9.5
		c1.7-0.8,1.5-2.5,1.3-3.2c-0.3-0.7-1.9-4.4-2.3-5.4c-0.4-1-1.3-2.7-3.8-1.6c-1.2,0.5-2.4,1.2-3.3,2.2c-3.1,3.2-2.9,10.3,3,20.3
		c5.9,10,12.1,13.5,16.4,12.3c1.3-0.4,2.4-1.1,3.5-1.9C40.4,34.1,39.3,32.5,38.6,31.7z"/>
</g>
</svg>
