<?xml version="1.0" encoding="utf-8"?>
<!-- Generator: Adobe Illustrator 19.1.0, SVG Export Plug-In . SVG Version: 6.00 Build 0)  -->
<svg version="1.1" id="Layer_1" xmlns="http://www.w3.org/2000/svg" xmlns:xlink="http://www.w3.org/1999/xlink" x="0px" y="0px"
	 viewBox="0 0 375 105" style="enable-background:new 0 0 375 105;" xml:space="preserve">
<style type="text/css">
	.st0{fill:#ffffff;}
	.st1{opacity:0.45;fill:#ffffff;}
	.st2{opacity:0.45;}
</style>
<g>
	<g>
		<path class="st0" d="M99.9,96.3h-2.3c-0.1,0-0.2,0.1-0.2,0.2v4.9c0,0.1-0.1,0.2-0.2,0.2h-0.9c-0.1,0-0.2-0.1-0.2-0.2V90.3
			c0-0.1,0.1-0.2,0.2-0.2h3.5c1.9,0,3.2,1.2,3.2,3.1C103,95,101.8,96.3,99.9,96.3z M101.8,93.1c0-1.1-0.9-1.9-2-1.9h-2.3
			c-0.1,0-0.2,0.1-0.2,0.2V95c0,0.1,0.1,0.2,0.2,0.2h2.3c1.1,0,2-0.9,2-2V93.1z"/>
		<path class="st0" d="M110.5,101.6h-0.9c-0.1,0-0.2,0-0.2-0.1l-0.7-2.5c0-0.1-0.1-0.1-0.2-0.1h-3.4c-0.1,0-0.2,0-0.2,0.1l-0.7,2.5
			c0,0.1-0.1,0.1-0.2,0.1h-0.9c-0.1,0-0.2-0.1-0.2-0.1c0-0.1,0.1-0.3,0.1-0.5l3.3-10.7c0-0.1,0.1-0.1,0.2-0.1h0.7
			c0.1,0,0.2,0,0.2,0.1l3.2,10.6c0.1,0.3,0.2,0.5,0.2,0.6C110.7,101.5,110.7,101.6,110.5,101.6z M107.1,92.9c0-0.1-0.2-0.6-0.2-0.7
			h-0.1c0,0.1-0.2,0.6-0.2,0.7l-1.3,4.8c0,0.1,0.1,0.2,0.2,0.2h2.6c0.1,0,0.2-0.1,0.2-0.2L107.1,92.9z"/>
		<path class="st0" d="M115.5,101.7h-0.8c-1.2,0-2-0.4-2.5-1c-0.2-0.2-0.4-0.5-0.4-0.6c0-0.1,0-0.1,0.1-0.1l0.7-0.4
			c0.1,0,0.1-0.1,0.2-0.1c0.1,0,0.1,0,0.1,0.1c0.4,0.7,1.1,1,1.7,1h0.8c1.1,0,2-0.9,2-1.9c0-1.3-1.2-1.9-2.5-2.4
			c-1.4-0.6-3-1.3-3-3.4c0-1.8,1.2-3,3.2-3h0.3c1.2,0,1.9,0.4,2.4,1c0.2,0.2,0.4,0.5,0.4,0.6c0,0.1-0.1,0.1-0.1,0.2l-0.6,0.3
			c-0.1,0-0.2,0.1-0.2,0.1c-0.1,0-0.1,0-0.1-0.1c-0.4-0.7-1.1-1-1.7-1h-0.3c-1.1,0-1.9,0.8-1.9,1.9c0,1.1,1.2,1.7,2.6,2.3
			c1.3,0.6,2.8,1.4,2.8,3.5C118.7,100.5,117.5,101.7,115.5,101.7z"/>
		<path class="st0" d="M123.9,101.7h-0.8c-1.2,0-2-0.4-2.5-1c-0.2-0.2-0.4-0.5-0.4-0.6c0-0.1,0-0.1,0.1-0.1l0.7-0.4
			c0.1,0,0.1-0.1,0.2-0.1s0.1,0,0.1,0.1c0.4,0.7,1.1,1,1.7,1h0.8c1.1,0,2-0.9,2-1.9c0-1.3-1.2-1.9-2.5-2.4c-1.4-0.6-3-1.3-3-3.4
			c0-1.8,1.2-3,3.2-3h0.3c1.2,0,1.9,0.4,2.4,1c0.2,0.2,0.4,0.5,0.4,0.6c0,0.1-0.1,0.1-0.1,0.2l-0.6,0.3c-0.1,0-0.2,0.1-0.2,0.1
			s-0.1,0-0.1-0.1c-0.4-0.7-1.1-1-1.7-1h-0.3c-1.1,0-1.9,0.8-1.9,1.9c0,1.1,1.2,1.7,2.6,2.3c1.3,0.6,2.8,1.4,2.8,3.5
			C127.1,100.5,125.9,101.7,123.9,101.7z"/>
		<path class="st0" d="M130.2,101.6h-0.9c-0.1,0-0.2-0.1-0.2-0.2V90.3c0-0.1,0.1-0.2,0.2-0.2h0.9c0.1,0,0.2,0.1,0.2,0.2v11.1
			C130.4,101.5,130.3,101.6,130.2,101.6z"/>
		<path class="st0" d="M136.3,101.7h-0.6c-1.9,0-3.2-1.2-3.2-3v-5.9c0-1.8,1.2-3,3.2-3h0.6c1.9,0,3.2,1.2,3.2,3v5.9
			C139.5,100.5,138.3,101.7,136.3,101.7z M138.3,92.9c0-1.1-0.9-1.9-1.9-1.9h-0.6c-1.1,0-1.9,0.8-1.9,1.9v5.9c0,1.1,0.8,1.9,1.9,1.9
			h0.6c1.1,0,1.9-0.9,1.9-1.9V92.9z"/>
		<path class="st0" d="M148.7,101.6h-0.9c-0.1,0-0.1,0-0.2-0.1l-4.4-8c-0.1-0.1-0.3-0.5-0.3-0.7l-0.1,0c0,0.4,0.1,2.8,0.1,4.2v4.3
			c0,0.1-0.1,0.2-0.2,0.2h-0.9c-0.1,0-0.2-0.1-0.2-0.2V90.3c0-0.1,0.1-0.2,0.2-0.2h0.8c0.1,0,0.1,0,0.2,0.1l4.4,8.1
			c0.1,0.1,0.3,0.5,0.3,0.7l0.1,0c0-0.4-0.1-2.8-0.1-4.2v-4.4c0-0.1,0.1-0.2,0.2-0.2h0.9c0.1,0,0.2,0.1,0.2,0.2v11.1
			C148.9,101.5,148.9,101.6,148.7,101.6z"/>
		<path class="st0" d="M158.2,101.6h-0.9c-0.1,0-0.2,0-0.2-0.1l-0.7-2.5c0-0.1-0.1-0.1-0.2-0.1h-3.4c-0.1,0-0.2,0-0.2,0.1l-0.7,2.5
			c0,0.1-0.1,0.1-0.2,0.1h-0.9c-0.1,0-0.2-0.1-0.2-0.1c0-0.1,0.1-0.3,0.1-0.5l3.3-10.7c0-0.1,0.1-0.1,0.2-0.1h0.7
			c0.1,0,0.2,0,0.2,0.1l3.2,10.6c0.1,0.3,0.2,0.5,0.2,0.6C158.4,101.5,158.3,101.6,158.2,101.6z M154.7,92.9c0-0.1-0.2-0.6-0.2-0.7
			h-0.1c0,0.1-0.2,0.6-0.2,0.7l-1.3,4.8c0,0.1,0.1,0.2,0.2,0.2h2.6c0.1,0,0.2-0.1,0.2-0.2L154.7,92.9z"/>
		<path class="st0" d="M164.2,91.1H162c-0.1,0-0.2,0.1-0.2,0.2v10c0,0.1-0.1,0.2-0.2,0.2h-0.9c-0.1,0-0.2-0.1-0.2-0.2v-10
			c0-0.1-0.1-0.2-0.2-0.2h-2.2c-0.1,0-0.2-0.1-0.2-0.2v-0.7c0-0.1,0.1-0.2,0.2-0.2h6c0.1,0,0.2,0.1,0.2,0.2V91
			C164.4,91.1,164.4,91.1,164.2,91.1z"/>
		<path class="st0" d="M172.5,101.6h-6c-0.1,0-0.2-0.1-0.2-0.2V90.3c0-0.1,0.1-0.2,0.2-0.2h6c0.1,0,0.2,0.1,0.2,0.2V91
			c0,0.1-0.1,0.2-0.2,0.2h-4.8c-0.1,0-0.2,0.1-0.2,0.2V95c0,0.1,0.1,0.2,0.2,0.2h3.9c0.1,0,0.2,0.1,0.2,0.2v0.7
			c0,0.1-0.1,0.2-0.2,0.2h-3.9c-0.1,0-0.2,0.1-0.2,0.2v3.9c0,0.1,0.1,0.2,0.2,0.2h4.8c0.1,0,0.2,0.1,0.2,0.2v0.7
			C172.7,101.5,172.6,101.6,172.5,101.6z"/>
		<path class="st0" d="M181.9,96.3h-2.3c-0.1,0-0.2,0.1-0.2,0.2v4.9c0,0.1-0.1,0.2-0.2,0.2h-0.9c-0.1,0-0.2-0.1-0.2-0.2V90.3
			c0-0.1,0.1-0.2,0.2-0.2h3.5c1.9,0,3.2,1.2,3.2,3.1C185.1,95,183.9,96.3,181.9,96.3z M183.9,93.1c0-1.1-0.9-1.9-2-1.9h-2.3
			c-0.1,0-0.2,0.1-0.2,0.2V95c0,0.1,0.1,0.2,0.2,0.2h2.3c1.1,0,2-0.9,2-2V93.1z"/>
		<path class="st0" d="M193.6,101.6h-1c-0.1,0-0.1-0.1-0.2-0.1l-1.7-5.1c0-0.1-0.1-0.1-0.1-0.1h-2.3c-0.1,0-0.2,0.1-0.2,0.2v4.9
			c0,0.1-0.1,0.2-0.2,0.2H187c-0.1,0-0.2-0.1-0.2-0.2V90.3c0-0.1,0.1-0.2,0.2-0.2h3.5c1.9,0,3.2,1.2,3.2,3.1v0.2
			c0,0.9-0.9,2-1.7,2.4c-0.1,0-0.1,0.1-0.1,0.1c0,0.1,0,0.1,0.1,0.2l1.6,4.8c0.1,0.2,0.1,0.4,0.1,0.5
			C193.7,101.5,193.7,101.6,193.6,101.6z M192.5,93.1c0-1.1-0.9-1.9-2-1.9h-2.3c-0.1,0-0.2,0.1-0.2,0.2V95c0,0.1,0.1,0.2,0.2,0.2
			h2.3c1.1,0,2-0.9,2-2V93.1z"/>
		<path class="st0" d="M199.3,101.7h-0.6c-1.9,0-3.2-1.2-3.2-3v-5.9c0-1.8,1.2-3,3.2-3h0.6c1.9,0,3.2,1.2,3.2,3v5.9
			C202.4,100.5,201.2,101.7,199.3,101.7z M201.2,92.9c0-1.1-0.9-1.9-1.9-1.9h-0.6c-1.1,0-1.9,0.8-1.9,1.9v5.9c0,1.1,0.8,1.9,1.9,1.9
			h0.6c1.1,0,1.9-0.9,1.9-1.9V92.9z"/>
		<path class="st0" d="M208.5,101.7H208c-1.9,0-3.2-1.2-3.2-3v-5.9c0-1.8,1.2-3,3.2-3h0.9c1.2,0,1.9,0.4,2.4,1
			c0.2,0.2,0.4,0.5,0.4,0.6c0,0.1-0.1,0.1-0.1,0.2l-0.7,0.3c-0.1,0-0.1,0.1-0.2,0.1c-0.1,0-0.1,0-0.1-0.1c-0.4-0.7-1.1-1-1.7-1H208
			c-1.1,0-1.9,0.8-1.9,1.9v5.9c0,1.1,0.8,1.9,1.9,1.9h0.6c1.1,0,1.9-0.9,1.9-1.9v-1.5c0-0.1-0.1-0.2-0.2-0.2h-1.9
			c-0.1,0-0.2-0.1-0.2-0.2v-0.7c0-0.1,0.1-0.2,0.2-0.2h3.1c0.1,0,0.2,0.1,0.2,0.2v2.5C211.7,100.5,210.5,101.7,208.5,101.7z"/>
		<path class="st0" d="M220.5,101.6h-1c-0.1,0-0.1-0.1-0.2-0.1l-1.7-5.1c0-0.1-0.1-0.1-0.1-0.1h-2.3c-0.1,0-0.2,0.1-0.2,0.2v4.9
			c0,0.1-0.1,0.2-0.2,0.2H214c-0.1,0-0.2-0.1-0.2-0.2V90.3c0-0.1,0.1-0.2,0.2-0.2h3.5c1.9,0,3.2,1.2,3.2,3.1v0.2
			c0,0.9-0.9,2-1.7,2.4c-0.1,0-0.1,0.1-0.1,0.1c0,0.1,0,0.1,0.1,0.2l1.6,4.8c0.1,0.2,0.1,0.4,0.1,0.5
			C220.7,101.5,220.6,101.6,220.5,101.6z M219.5,93.1c0-1.1-0.9-1.9-2-1.9h-2.3c-0.1,0-0.2,0.1-0.2,0.2V95c0,0.1,0.1,0.2,0.2,0.2
			h2.3c1.1,0,2-0.9,2-2V93.1z"/>
		<path class="st0" d="M229.4,101.6h-0.9c-0.1,0-0.2,0-0.2-0.1l-0.7-2.5c0-0.1-0.1-0.1-0.2-0.1h-3.4c-0.1,0-0.2,0-0.2,0.1l-0.7,2.5
			c0,0.1-0.1,0.1-0.2,0.1h-0.9c-0.1,0-0.2-0.1-0.2-0.1c0-0.1,0.1-0.3,0.1-0.5l3.3-10.7c0-0.1,0.1-0.1,0.2-0.1h0.7
			c0.1,0,0.2,0,0.2,0.1l3.2,10.6c0.1,0.3,0.2,0.5,0.2,0.6C229.6,101.5,229.5,101.6,229.4,101.6z M225.9,92.9c0-0.1-0.2-0.6-0.2-0.7
			h-0.1c0,0.1-0.2,0.6-0.2,0.7l-1.3,4.8c0,0.1,0.1,0.2,0.2,0.2h2.6c0.1,0,0.2-0.1,0.2-0.2L225.9,92.9z"/>
		<path class="st0" d="M239.9,101.6h-0.9c-0.1,0-0.2-0.1-0.2-0.2V97c0-1.4,0.1-3.8,0.2-4.2l-0.1,0c-0.1,0.1-0.4,1.1-0.5,1.3
			l-2.5,5.6c0,0.1-0.1,0.1-0.2,0.1h-0.4c-0.1,0-0.1,0-0.2-0.1l-2.5-5.6c-0.1-0.2-0.4-1.1-0.5-1.3l-0.1,0c0,0.4,0.2,2.8,0.2,4.2v4.3
			c0,0.1-0.1,0.2-0.2,0.2h-0.9c-0.1,0-0.2-0.1-0.2-0.2V90.3c0-0.1,0.1-0.2,0.2-0.2h0.8c0.1,0,0.1,0,0.2,0.1l3,6.9
			c0.1,0.1,0.2,0.6,0.3,0.7h0.1c0-0.1,0.2-0.6,0.3-0.7l2.9-6.9c0-0.1,0.1-0.1,0.2-0.1h0.9c0.1,0,0.2,0.1,0.2,0.2v11.1
			C240.1,101.5,240.1,101.6,239.9,101.6z"/>
		<path class="st0" d="M251.8,101.6H251c-0.1,0-0.2-0.1-0.2-0.2V97c0-1.4,0.1-3.8,0.2-4.2l-0.1,0c-0.1,0.1-0.4,1.1-0.5,1.3l-2.5,5.6
			c0,0.1-0.1,0.1-0.2,0.1h-0.4c-0.1,0-0.1,0-0.2-0.1l-2.5-5.6c-0.1-0.2-0.4-1.1-0.5-1.3l-0.1,0c0,0.4,0.2,2.8,0.2,4.2v4.3
			c0,0.1-0.1,0.2-0.2,0.2h-0.9c-0.1,0-0.2-0.1-0.2-0.2V90.3c0-0.1,0.1-0.2,0.2-0.2h0.8c0.1,0,0.1,0,0.2,0.1l3,6.9
			c0.1,0.1,0.2,0.6,0.3,0.7h0.1c0-0.1,0.2-0.6,0.3-0.7l2.9-6.9c0-0.1,0.1-0.1,0.2-0.1h0.9c0.1,0,0.2,0.1,0.2,0.2v11.1
			C252,101.5,251.9,101.6,251.8,101.6z"/>
		<path class="st0" d="M261.1,101.6h-6c-0.1,0-0.2-0.1-0.2-0.2V90.3c0-0.1,0.1-0.2,0.2-0.2h6c0.1,0,0.2,0.1,0.2,0.2V91
			c0,0.1-0.1,0.2-0.2,0.2h-4.8c-0.1,0-0.2,0.1-0.2,0.2V95c0,0.1,0.1,0.2,0.2,0.2h3.9c0.1,0,0.2,0.1,0.2,0.2v0.7
			c0,0.1-0.1,0.2-0.2,0.2h-3.9c-0.1,0-0.2,0.1-0.2,0.2v3.9c0,0.1,0.1,0.2,0.2,0.2h4.8c0.1,0,0.2,0.1,0.2,0.2v0.7
			C261.3,101.5,261.2,101.6,261.1,101.6z"/>
		<path class="st0" d="M270.4,101.6h-1c-0.1,0-0.1-0.1-0.2-0.1l-1.7-5.1c0-0.1-0.1-0.1-0.1-0.1h-2.3c-0.1,0-0.2,0.1-0.2,0.2v4.9
			c0,0.1-0.1,0.2-0.2,0.2h-0.9c-0.1,0-0.2-0.1-0.2-0.2V90.3c0-0.1,0.1-0.2,0.2-0.2h3.5c1.9,0,3.2,1.2,3.2,3.1v0.2
			c0,0.9-0.9,2-1.7,2.4c-0.1,0-0.1,0.1-0.1,0.1c0,0.1,0,0.1,0.1,0.2l1.6,4.8c0.1,0.2,0.1,0.4,0.1,0.5
			C270.6,101.5,270.5,101.6,270.4,101.6z M269.4,93.1c0-1.1-0.9-1.9-2-1.9h-2.3c-0.1,0-0.2,0.1-0.2,0.2V95c0,0.1,0.1,0.2,0.2,0.2
			h2.3c1.1,0,2-0.9,2-2V93.1z"/>
		<path class="st0" d="M275.9,101.7h-0.8c-1.2,0-2-0.4-2.5-1c-0.2-0.2-0.4-0.5-0.4-0.6c0-0.1,0-0.1,0.1-0.1l0.7-0.4
			c0.1,0,0.1-0.1,0.2-0.1s0.1,0,0.1,0.1c0.4,0.7,1.1,1,1.7,1h0.8c1.1,0,2-0.9,2-1.9c0-1.3-1.2-1.9-2.5-2.4c-1.4-0.6-3-1.3-3-3.4
			c0-1.8,1.2-3,3.2-3h0.3c1.2,0,1.9,0.4,2.4,1c0.2,0.2,0.4,0.5,0.4,0.6c0,0.1-0.1,0.1-0.1,0.2l-0.6,0.3c-0.1,0-0.2,0.1-0.2,0.1
			s-0.1,0-0.1-0.1c-0.4-0.7-1.1-1-1.7-1h-0.3c-1.1,0-1.9,0.8-1.9,1.9c0,1.1,1.2,1.7,2.6,2.3c1.3,0.6,2.8,1.4,2.8,3.5
			C279.1,100.5,277.8,101.7,275.9,101.7z"/>
	</g>
	<g>
		<path class="st0" d="M191.4,62.2c-2.9,0-5.2,2.3-5.2,5.2c0,2.9,2.3,5.2,5.2,5.2s5.2-2.3,5.2-5.2C196.7,64.5,194.3,62.2,191.4,62.2
			z"/>
		<path class="st0" d="M308.2,56.5l-4.1-2.1l4.1-2.1c0.6-0.3,0.9-1.1,0.5-1.7l-0.9-1.7c-0.3-0.6-1.1-0.9-1.7-0.5l-4.8,2.5v-5.4
			c0-0.7-0.6-1.3-1.3-1.3h-1.9c-0.7,0-1.3,0.6-1.3,1.3v5.4l-4.8-2.4c-0.6-0.3-1.4-0.1-1.7,0.6l-0.8,1.7c-0.3,0.6-0.1,1.4,0.6,1.7
			l4.1,2.1l-4.1,2.1c-0.6,0.3-0.9,1.1-0.5,1.7l0.9,1.7c0.3,0.6,1.1,0.9,1.7,0.5L297,58v5.4c0,0.7,0.6,1.3,1.3,1.3h1.9
			c0.7,0,1.3-0.6,1.3-1.3V58l4.8,2.4c0.6,0.3,1.4,0.1,1.7-0.6l0.8-1.7C309.1,57.6,308.8,56.8,308.2,56.5z"/>
		<path class="st0" d="M20.2,9.9h3.4c3.6,0,7.1,1.8,10,5.3c0.6,0.8,1.8,0.9,2.6,0.4l2.7-1.4c0.7-0.3,1.1-0.9,1.3-1.5
			c0.1-0.6,0-1.2-0.3-1.7c-1.1-1.7-2.6-3.2-4.3-4.3c-3.2-2.4-7.3-3.6-12-3.6h-3.4c-11.4,0-18.8,7-18.8,17.8v34.7
			c0,10.7,7.5,17.9,18.8,17.9h3.4c5.2,0,9.3-1.3,12.6-3.9c1.5-1.1,2.7-2.5,3.7-4.1c0.3-0.5,0.5-1.1,0.3-1.7
			c-0.2-0.7-0.7-1.2-1.4-1.6L36,61.2c-1-0.5-2-0.3-2.6,0.6c-2.4,3.5-5.9,5.4-9.8,5.4h-3.4c-6.2,0-11.1-5-11.1-11.4V21.1
			C9.1,14.6,13.8,9.9,20.2,9.9z"/>
		<path class="st1" d="M263.8,15.5h-3.2c-1.4,0-2.2,0.8-2.2,2.2v52.6c0,1.4,0.8,2.2,2.2,2.2h3.2c1.4,0,2.2-0.8,2.2-2.2V17.7
			C266,16.3,265.2,15.5,263.8,15.5z"/>
		<path class="st1" d="M281.2,8.6v-2c0-1.4-0.8-2.2-2.2-2.2h-33.6c-1.4,0-2.2,0.8-2.2,2.2v2c0,1.4,0.8,2.2,2.2,2.2H279
			C280.4,10.9,281.2,10,281.2,8.6z"/>
		<path class="st0" d="M157.5,34.8c-1.4,0-2.2,0.8-2.2,2.2v2c0,1.4,0.8,2.2,2.2,2.2h15.9c1.4,0,2.2-0.8,2.2-2.2v-2
			c0-1.4-0.8-2.2-2.2-2.2H157.5z"/>
		<path class="st1" d="M223.2,34.4l-2.1-1c-5.5-2.6-11.8-5.5-11.8-12.3c0-6.8,4.3-11.2,11-11.2h1.7c3.8,0,7.5,2,10,5.3
			c0.6,0.8,1.7,1,2.7,0.4l2.6-1.4c0.7-0.3,1.1-0.9,1.3-1.5c0.1-0.4,0.1-1-0.3-1.7c-1.4-2-3.1-3.7-5-4.8c-3-2-6.9-3-11.2-3h-1.7
			c-11.2,0-18.8,7.2-18.8,17.8c0,12,8.5,15.9,17.5,20.1l1.1,0.5c6.5,3,13.2,6.1,13.2,14c0,6.6-4.8,11.4-11.4,11.4h-4.5
			c-3.7,0-7.2-1.8-9.8-5.3c-0.6-0.8-1.6-1.1-2.6-0.7l-2.8,1.5c-0.6,0.3-1.1,0.9-1.2,1.6c-0.1,0.6,0,1.3,0.4,1.8
			c1.3,1.8,2.9,3.3,4.8,4.6c3.2,2.1,7,3.1,11.3,3.1h4.5c11.5,0,19.3-7.2,19.3-17.9C241.3,42.8,232.9,38.9,223.2,34.4z"/>
		<path class="st0" d="M118.4,4.4H98.5c-1.4,0-2.2,0.8-2.2,2.2v63.7c0,1.4,0.8,2.2,2.2,2.2h19.9c11.6,0,19.1-7.5,19.1-19.1V23.1
			C137.5,11.8,130,4.4,118.4,4.4z M129.8,54.6c0,6.5-4.9,11.4-11.4,11.4h-13c-0.9,0-1.5-0.6-1.5-1.5V12.4c0-0.9,0.5-1.5,1.5-1.5h13
			c6.4,0,11.4,4.9,11.4,11.2V54.6z"/>
		<path class="st0" d="M152.1,10.9h26.5c1.4,0,2.2-0.8,2.2-2.2v-2c0-1.4-0.8-2.2-2.2-2.2h-33.4c-1.4,0-2.2,0.8-2.2,2.2v63.7
			c0,1.4,0.8,2.2,2.2,2.2h33.4c1.4,0,2.2-0.8,2.2-2.2v-2.1c0-1.4-0.8-2.2-2.2-2.2h-26.5c-0.9,0-1.5-0.5-1.5-1.4V12.3
			C150.6,11.4,151.2,10.9,152.1,10.9z"/>
		<path class="st1" d="M373.6,24.1v-1.8c0-11.1-7.4-17.9-19.2-17.9h-19.9c-1.4,0-2.2,0.8-2.2,2.2v63.7c0,1.4,0.8,2.2,2.2,2.2h3.2
			c1.4,0,2.2-0.8,2.2-2.2v-58c0-0.9,0.6-1.4,1.5-1.5h13c6.8,0,11.4,4.5,11.4,11.2v1c0,6.5-5,11.6-11.4,11.6h-7.5
			c-1.4,0-2.3,0.8-2.3,2.3v2c0,2.3,2.3,2.3,2.3,2.3h7.9L365.1,71c0.2,0.9,1.1,1.6,2.1,1.6h3.8c1.1,0,1.7-0.5,1.9-0.9
			c0.2-0.3,0.5-1,0.2-2.1l-10.5-30.4C368.9,36.9,373.6,30.5,373.6,24.1z"/>
		<g class="st2">
			<path class="st0" d="M326.8,69.7L326.8,69.7L302.7,6c-0.4-1-1.1-1.6-2.2-1.6h-2.7c-1.1,0-1.8,0.6-2.2,1.6l-24,63.7l0,0.1
				c-0.3,1,0,1.7,0.3,2c0.3,0.4,0.8,0.8,1.9,0.8h3.4c1.1,0,1.8-0.6,2.2-1.6c0,0,0-0.1,0.1-0.2c1.5-3.9,18.3-48.7,18.6-49.3
				c0.3-0.7,0.5-0.9,1.1-0.9c0.6,0,0.9,0.3,1.2,0.9c0.3,0.7,18,47.9,18.7,49.5c0.4,1,1.1,1.6,2.2,1.6h3.5c1,0,1.6-0.4,1.9-0.8
				C326.9,71.3,327,70.6,326.8,69.7z"/>
		</g>
		<g>
			<path id="paren1" class="st0" d="M63.5,3.3L63.5,3.3c-11.4,0-19,7.2-19,17.8v14.2L42.3,38l2.2,2.7v15.1c0,10.7,7.6,17.9,19,17.9
				c1.1,0,1.8-0.8,1.8-1.9v-2.8c0-1.1-0.8-1.9-1.7-1.9h-0.2c-6-0.1-11.2-5.3-11.2-11.4V40.2L50.5,38l1.7-2.2V21.1
				c0-6.3,4.9-11.2,11.2-11.2c0,0,0,0,0,0s1.8,0,1.8-1.9V5.2C65.3,4.1,64.6,3.3,63.5,3.3z"/>
			<path id="paren2" class="st0" d="M90.8,35.3V21.1c0-10.7-7.6-17.8-19-17.8h0c-1.1,0-1.8,0.8-1.8,1.9V8c0,1.9,1.8,1.9,1.8,1.9c0,0,0,0,0,0
				c6.3,0,11.3,4.9,11.3,11.2v14.7l1.7,2.2l-1.7,2.2v15.6c0,6.1-5.1,11.3-11.2,11.4h-0.2c-1,0-1.7,0.8-1.7,1.9v2.8
				c0,1.1,0.8,1.9,1.8,1.9c11.4,0,19-7.2,19-17.9V40.7L93,38L90.8,35.3z"/>
		</g>
	</g>
</g>
</svg>
