<?xml version="1.0" encoding="utf-8"?>
<!-- Generator: Adobe Illustrator 19.1.0, SVG Export Plug-In . SVG Version: 6.00 Build 0)  -->
<svg version="1.1" id="Layer_1" xmlns="http://www.w3.org/2000/svg" xmlns:xlink="http://www.w3.org/1999/xlink" x="0px" y="0px"
	 viewBox="0 0 375 105" style="enable-background:new 0 0 375 105;" xml:space="preserve">
<style type="text/css">
	.st0{fill:#ffffff;}
	.st1{opacity:0.45;fill:#ffffff;}
	.st2{opacity:0.45;}
</style>
<g>
	<g>
		<path class="st0" d="M191.4,62.2c-2.9,0-5.2,2.3-5.2,5.2c0,2.9,2.3,5.2,5.2,5.2s5.2-2.3,5.2-5.2C196.7,64.5,194.3,62.2,191.4,62.2
			z"/>
		<path class="st0" d="M308.2,56.5l-4.1-2.1l4.1-2.1c0.6-0.3,0.9-1.1,0.5-1.7l-0.9-1.7c-0.3-0.6-1.1-0.9-1.7-0.5l-4.8,2.5v-5.4
			c0-0.7-0.6-1.3-1.3-1.3h-1.9c-0.7,0-1.3,0.6-1.3,1.3v5.4l-4.8-2.4c-0.6-0.3-1.4-0.1-1.7,0.6l-0.8,1.7c-0.3,0.6-0.1,1.4,0.6,1.7
			l4.1,2.1l-4.1,2.1c-0.6,0.3-0.9,1.1-0.5,1.7l0.9,1.7c0.3,0.6,1.1,0.9,1.7,0.5L297,58v5.4c0,0.7,0.6,1.3,1.3,1.3h1.9
			c0.7,0,1.3-0.6,1.3-1.3V58l4.8,2.4c0.6,0.3,1.4,0.1,1.7-0.6l0.8-1.7C309.1,57.6,308.8,56.8,308.2,56.5z"/>
		<path class="st0" d="M20.2,9.9h3.4c3.6,0,7.1,1.8,10,5.3c0.6,0.8,1.8,0.9,2.6,0.4l2.7-1.4c0.7-0.3,1.1-0.9,1.3-1.5
			c0.1-0.6,0-1.2-0.3-1.7c-1.1-1.7-2.6-3.2-4.3-4.3c-3.2-2.4-7.3-3.6-12-3.6h-3.4c-11.4,0-18.8,7-18.8,17.8v34.7
			c0,10.7,7.5,17.9,18.8,17.9h3.4c5.2,0,9.3-1.3,12.6-3.9c1.5-1.1,2.7-2.5,3.7-4.1c0.3-0.5,0.5-1.1,0.3-1.7
			c-0.2-0.7-0.7-1.2-1.4-1.6L36,61.2c-1-0.5-2-0.3-2.6,0.6c-2.4,3.5-5.9,5.4-9.8,5.4h-3.4c-6.2,0-11.1-5-11.1-11.4V21.1
			C9.1,14.6,13.8,9.9,20.2,9.9z"/>
		<path class="st1" d="M263.8,15.5h-3.2c-1.4,0-2.2,0.8-2.2,2.2v52.6c0,1.4,0.8,2.2,2.2,2.2h3.2c1.4,0,2.2-0.8,2.2-2.2V17.7
			C266,16.3,265.2,15.5,263.8,15.5z"/>
		<path class="st1" d="M281.2,8.6v-2c0-1.4-0.8-2.2-2.2-2.2h-33.6c-1.4,0-2.2,0.8-2.2,2.2v2c0,1.4,0.8,2.2,2.2,2.2H279
			C280.4,10.9,281.2,10,281.2,8.6z"/>
		<path class="st0" d="M157.5,34.8c-1.4,0-2.2,0.8-2.2,2.2v2c0,1.4,0.8,2.2,2.2,2.2h15.9c1.4,0,2.2-0.8,2.2-2.2v-2
			c0-1.4-0.8-2.2-2.2-2.2H157.5z"/>
		<path class="st1" d="M223.2,34.4l-2.1-1c-5.5-2.6-11.8-5.5-11.8-12.3c0-6.8,4.3-11.2,11-11.2h1.7c3.8,0,7.5,2,10,5.3
			c0.6,0.8,1.7,1,2.7,0.4l2.6-1.4c0.7-0.3,1.1-0.9,1.3-1.5c0.1-0.4,0.1-1-0.3-1.7c-1.4-2-3.1-3.7-5-4.8c-3-2-6.9-3-11.2-3h-1.7
			c-11.2,0-18.8,7.2-18.8,17.8c0,12,8.5,15.9,17.5,20.1l1.1,0.5c6.5,3,13.2,6.1,13.2,14c0,6.6-4.8,11.4-11.4,11.4h-4.5
			c-3.7,0-7.2-1.8-9.8-5.3c-0.6-0.8-1.6-1.1-2.6-0.7l-2.8,1.5c-0.6,0.3-1.1,0.9-1.2,1.6c-0.1,0.6,0,1.3,0.4,1.8
			c1.3,1.8,2.9,3.3,4.8,4.6c3.2,2.1,7,3.1,11.3,3.1h4.5c11.5,0,19.3-7.2,19.3-17.9C241.3,42.8,232.9,38.9,223.2,34.4z"/>
		<path class="st0" d="M118.4,4.4H98.5c-1.4,0-2.2,0.8-2.2,2.2v63.7c0,1.4,0.8,2.2,2.2,2.2h19.9c11.6,0,19.1-7.5,19.1-19.1V23.1
			C137.5,11.8,130,4.4,118.4,4.4z M129.8,54.6c0,6.5-4.9,11.4-11.4,11.4h-13c-0.9,0-1.5-0.6-1.5-1.5V12.4c0-0.9,0.5-1.5,1.5-1.5h13
			c6.4,0,11.4,4.9,11.4,11.2V54.6z"/>
		<path class="st0" d="M152.1,10.9h26.5c1.4,0,2.2-0.8,2.2-2.2v-2c0-1.4-0.8-2.2-2.2-2.2h-33.4c-1.4,0-2.2,0.8-2.2,2.2v63.7
			c0,1.4,0.8,2.2,2.2,2.2h33.4c1.4,0,2.2-0.8,2.2-2.2v-2.1c0-1.4-0.8-2.2-2.2-2.2h-26.5c-0.9,0-1.5-0.5-1.5-1.4V12.3
			C150.6,11.4,151.2,10.9,152.1,10.9z"/>
		<path class="st1" d="M373.6,24.1v-1.8c0-11.1-7.4-17.9-19.2-17.9h-19.9c-1.4,0-2.2,0.8-2.2,2.2v63.7c0,1.4,0.8,2.2,2.2,2.2h3.2
			c1.4,0,2.2-0.8,2.2-2.2v-58c0-0.9,0.6-1.4,1.5-1.5h13c6.8,0,11.4,4.5,11.4,11.2v1c0,6.5-5,11.6-11.4,11.6h-7.5
			c-1.4,0-2.3,0.8-2.3,2.3v2c0,2.3,2.3,2.3,2.3,2.3h7.9L365.1,71c0.2,0.9,1.1,1.6,2.1,1.6h3.8c1.1,0,1.7-0.5,1.9-0.9
			c0.2-0.3,0.5-1,0.2-2.1l-10.5-30.4C368.9,36.9,373.6,30.5,373.6,24.1z"/>
		<g class="st2">
			<path class="st0" d="M326.8,69.7L326.8,69.7L302.7,6c-0.4-1-1.1-1.6-2.2-1.6h-2.7c-1.1,0-1.8,0.6-2.2,1.6l-24,63.7l0,0.1
				c-0.3,1,0,1.7,0.3,2c0.3,0.4,0.8,0.8,1.9,0.8h3.4c1.1,0,1.8-0.6,2.2-1.6c0,0,0-0.1,0.1-0.2c1.5-3.9,18.3-48.7,18.6-49.3
				c0.3-0.7,0.5-0.9,1.1-0.9c0.6,0,0.9,0.3,1.2,0.9c0.3,0.7,18,47.9,18.7,49.5c0.4,1,1.1,1.6,2.2,1.6h3.5c1,0,1.6-0.4,1.9-0.8
				C326.9,71.3,327,70.6,326.8,69.7z"/>
		</g>
		<g>
			<path class="st0" d="M63.5,3.3L63.5,3.3c-11.4,0-19,7.2-19,17.8v14.2L42.3,38l2.2,2.7v15.1c0,10.7,7.6,17.9,19,17.9
				c1.1,0,1.8-0.8,1.8-1.9v-2.8c0-1.1-0.8-1.9-1.7-1.9h-0.2c-6-0.1-11.2-5.3-11.2-11.4V40.2L50.5,38l1.7-2.2V21.1
				c0-6.3,4.9-11.2,11.2-11.2c0,0,0,0,0,0s1.8,0,1.8-1.9V5.2C65.3,4.1,64.6,3.3,63.5,3.3z"/>
			<path class="st0" d="M90.8,35.3V21.1c0-10.7-7.6-17.8-19-17.8h0c-1.1,0-1.8,0.8-1.8,1.9V8c0,1.9,1.8,1.9,1.8,1.9c0,0,0,0,0,0
				c6.3,0,11.3,4.9,11.3,11.2v14.7l1.7,2.2l-1.7,2.2v15.6c0,6.1-5.1,11.3-11.2,11.4h-0.2c-1,0-1.7,0.8-1.7,1.9v2.8
				c0,1.1,0.8,1.9,1.8,1.9c11.4,0,19-7.2,19-17.9V40.7L93,38L90.8,35.3z"/>
		</g>
	</g>
</g>
</svg>
