<?xml version="1.0" encoding="utf-8"?>
<!-- Generator: Adobe Illustrator 19.1.0, SVG Export Plug-In . SVG Version: 6.00 Build 0)  -->
<svg version="1.1" id="Layer_1" xmlns="http://www.w3.org/2000/svg" xmlns:xlink="http://www.w3.org/1999/xlink" x="0px" y="0px"
	 viewBox="0 0 34.8 53.6" style="enable-background:new 0 0 34.8 53.6;" xml:space="preserve">
<style type="text/css">
	.st0{fill:#FFFFFF;}
</style>
<path class="st0" d="M18,52.3h-1.5C9,52.3,3,46.2,3,38.8v-22C3,9.3,9,3.3,16.5,3.3H18c7.4,0,13.5,6.1,13.5,13.5v22
	C31.5,46.2,25.4,52.3,18,52.3z M16.5,6.3C10.7,6.3,6,11,6,16.8v22c0,5.8,4.7,10.5,10.5,10.5H18c5.8,0,10.5-4.7,10.5-10.5v-22
	C28.5,11,23.8,6.3,18,6.3H16.5z"/>
<path class="st0" d="M16.8,21.3L16.8,21.3c-1,0-1.8-0.8-1.8-1.8v-4.3c0-1,0.8-1.8,1.8-1.8h0c1,0,1.8,0.8,1.8,1.8v4.3
	C18.7,20.5,17.9,21.3,16.8,21.3z"/>
</svg>
