<?xml version="1.0" encoding="utf-8"?>
<!-- Generator: Adobe Illustrator 19.1.0, SVG Export Plug-In . SVG Version: 6.00 Build 0)  -->
<svg version="1.1" id="Layer_1" xmlns="http://www.w3.org/2000/svg" xmlns:xlink="http://www.w3.org/1999/xlink" x="0px" y="0px"
	 viewBox="0 0 180 180" style="enable-background:new 0 0 180 180;" xml:space="preserve">
<style type="text/css">
	.st0{fill:none;stroke:#FFFFFF;stroke-width:0.7;stroke-miterlimit:10;}
	.st1{fill:#E50740;stroke:#FFFFFF;stroke-miterlimit:10;}
	.st2{fill:#FFFFFF;}
</style>
<g>
	<line class="st0" x1="90" y1="90" x2="90" y2="90"/>
	<line class="st0" x1="90" y1="90" x2="90" y2="90"/>
	<line class="st0" x1="90" y1="43" x2="90" y2="46.3"/>
	<line class="st0" x1="90" y1="90" x2="90" y2="90"/>
	<line class="st0" x1="90" y1="90" x2="90" y2="90"/>
	<line class="st0" x1="90" y1="137" x2="90" y2="133.7"/>
	<line class="st0" x1="90" y1="90" x2="90" y2="90"/>
	<line class="st0" x1="90" y1="90" x2="90" y2="90"/>
	<line class="st0" x1="90" y1="90" x2="90" y2="90"/>
	<line class="st0" x1="43" y1="90" x2="46.3" y2="90"/>
	<line class="st0" x1="137" y1="90" x2="133.7" y2="90"/>
	<line class="st0" x1="90" y1="90" x2="90" y2="90"/>
	<line class="st0" x1="90" y1="90" x2="90" y2="90"/>
	<line class="st0" x1="90" y1="90" x2="90" y2="90"/>
	<line class="st0" x1="90" y1="90" x2="90" y2="90"/>
	<line class="st0" x1="90" y1="90" x2="90" y2="90"/>
	<line class="st0" x1="90" y1="90" x2="90" y2="90"/>
	<line class="st0" x1="123.2" y1="56.8" x2="120.9" y2="59.1"/>
	<line class="st0" x1="90" y1="90" x2="90" y2="90"/>
	<line class="st0" x1="56.8" y1="123.2" x2="59.1" y2="120.9"/>
	<line class="st0" x1="90" y1="90" x2="90" y2="90"/>
	<line class="st0" x1="90" y1="90" x2="90" y2="90"/>
	<line class="st0" x1="90" y1="90" x2="90" y2="90"/>
	<line class="st0" x1="123.2" y1="123.2" x2="120.9" y2="120.9"/>
	<line class="st0" x1="90" y1="90" x2="90" y2="90"/>
	<line class="st0" x1="59.1" y1="59.1" x2="56.8" y2="56.8"/>
	<line class="st0" x1="110.4" y1="40.8" x2="106.7" y2="49.7"/>
	<line class="st0" x1="90" y1="90" x2="90" y2="90"/>
	<line class="st0" x1="90" y1="90" x2="90" y2="90"/>
	<line class="st0" x1="90" y1="90" x2="90" y2="90"/>
	<line class="st0" x1="69.6" y1="139.2" x2="73.3" y2="130.3"/>
	<line class="st0" x1="90" y1="90" x2="90" y2="90"/>
	<line class="st0" x1="90" y1="90" x2="90" y2="90"/>
	<line class="st0" x1="90" y1="90" x2="90" y2="90"/>
	<line class="st0" x1="49.7" y1="73.3" x2="40.8" y2="69.6"/>
	<line class="st0" x1="90" y1="90" x2="90" y2="90"/>
	<line class="st0" x1="90" y1="90" x2="90" y2="90"/>
	<line class="st0" x1="90" y1="90" x2="90" y2="90"/>
	<line class="st0" x1="90" y1="90" x2="90" y2="90"/>
	<line class="st0" x1="139.2" y1="110.4" x2="130.3" y2="106.7"/>
	<line class="st0" x1="90" y1="90" x2="90" y2="90"/>
	<line class="st0" x1="90" y1="90" x2="90" y2="90"/>
	<line class="st0" x1="90" y1="90" x2="90" y2="90"/>
	<line class="st0" x1="90" y1="90" x2="90" y2="90"/>
	<line class="st0" x1="90" y1="90" x2="90" y2="90"/>
	<line class="st0" x1="49.7" y1="106.7" x2="40.8" y2="110.4"/>
	<line class="st0" x1="90" y1="90" x2="90" y2="90"/>
	<line class="st0" x1="139.2" y1="69.6" x2="130.3" y2="73.3"/>
	<line class="st0" x1="90" y1="90" x2="90" y2="90"/>
	<line class="st0" x1="90" y1="90" x2="90" y2="90"/>
	<line class="st0" x1="69.6" y1="40.8" x2="73.3" y2="49.7"/>
	<line class="st0" x1="110.4" y1="139.2" x2="106.7" y2="130.3"/>
	<line class="st0" x1="90" y1="90" x2="90" y2="90"/>
	<path class="st1" d="M90,90"/>
	<path class="st1" d="M90,90"/>
</g>
<circle class="st2" cx="90" cy="90" r="38.4"/>
<path class="st2" d="M90,132.1c-0.8,0-1.6,0-2.4-0.1l0-0.7c1.6,0.1,3.3,0.1,5,0l0,0.7C91.8,132.1,90.9,132.1,90,132.1z M83.6,131.6
	c-1.7-0.3-3.3-0.6-4.9-1.1l0.2-0.7c1.6,0.4,3.2,0.8,4.8,1L83.6,131.6z M96.7,131.6l-0.1-0.7c1.6-0.3,3.3-0.6,4.8-1.1l0.2,0.7
	C100,131,98.3,131.3,96.7,131.6z M74.9,129.3c-1.6-0.6-3.1-1.3-4.6-2.1l0.3-0.6c1.5,0.8,3,1.5,4.5,2.1L74.9,129.3z M105.4,129.2
	l-0.3-0.7c1.5-0.6,3-1.3,4.5-2.1l0.3,0.6C108.5,127.9,107,128.6,105.4,129.2z M66.8,125.2c-1.4-0.9-2.8-1.9-4-3l0.5-0.5
	c1.3,1.1,2.6,2.1,4,3L66.8,125.2z M113.4,125l-0.4-0.6c1.4-0.9,2.7-1.9,3.9-3l0.5,0.5C116.2,123.1,114.8,124.1,113.4,125z
	 M59.8,119.4c-1.2-1.2-2.3-2.5-3.3-3.8l0.6-0.4c1,1.3,2.1,2.6,3.2,3.7L59.8,119.4z M120.4,119.2l-0.5-0.5c1.1-1.2,2.2-2.5,3.2-3.8
	l0.6,0.4C122.6,116.7,121.5,118,120.4,119.2z M54.2,112.3c-0.9-1.4-1.7-2.9-2.4-4.4l0.6-0.3c0.7,1.5,1.5,3,2.4,4.3L54.2,112.3z
	 M125.9,112l-0.6-0.4c0.9-1.4,1.6-2.9,2.3-4.4l0.6,0.3C127.6,109.1,126.8,110.6,125.9,112z M50.3,104.1c-0.6-1.6-1-3.2-1.4-4.8
	l0.7-0.2c0.4,1.6,0.8,3.2,1.4,4.8L50.3,104.1z M129.8,103.9l-0.7-0.2c0.5-1.6,1-3.2,1.3-4.8l0.7,0.1
	C130.8,100.6,130.3,102.3,129.8,103.9z M48.2,95.3c-0.2-1.7-0.3-3.3-0.3-5l0.7,0c0,1.6,0.1,3.3,0.3,4.9L48.2,95.3z M131.8,95
	l-0.7-0.1c0.2-1.6,0.3-3.3,0.3-4.9c0-0.5,0-1,0-1.5l0.7,0c0,0.5,0,1,0,1.6C132.1,91.7,132,93.4,131.8,95z M48.7,86.3L48,86.3
	c0.1-1.7,0.4-3.3,0.7-5l0.7,0.1C49.1,83,48.9,84.7,48.7,86.3z M131.1,84.5c-0.2-1.6-0.5-3.3-0.9-4.9l0.7-0.2c0.4,1.6,0.7,3.3,1,4.9
	L131.1,84.5z M50.5,77.6l-0.7-0.2c0.5-1.6,1.1-3.2,1.8-4.7l0.6,0.3C51.6,74.4,51,76,50.5,77.6z M128.9,75.9c-0.6-1.5-1.2-3.1-2-4.5
	l0.6-0.3c0.8,1.5,1.4,3,2,4.6L128.9,75.9z M54,69.4l-0.6-0.3c0.8-1.5,1.8-2.9,2.8-4.2l0.6,0.4C55.8,66.6,54.9,68,54,69.4z M125,67.9
	c-0.9-1.4-1.9-2.7-2.9-4l0.5-0.4c1.1,1.3,2,2.7,2.9,4.1L125,67.9z M59.3,62.2l-0.5-0.5c1.1-1.2,2.3-2.4,3.6-3.5l0.5,0.5
	C61.6,59.8,60.4,61,59.3,62.2z M119.5,60.9c-1.2-1.2-2.4-2.3-3.7-3.3l0.4-0.5c1.3,1,2.6,2.2,3.7,3.4L119.5,60.9z M65.9,56.3
	l-0.4-0.6c1.4-1,2.8-1.9,4.3-2.7l0.3,0.6C68.7,54.4,67.3,55.3,65.9,56.3z M112.6,55.3c-1.4-0.9-2.8-1.7-4.3-2.5l0.3-0.6
	c1.5,0.7,3,1.6,4.4,2.5L112.6,55.3z M73.7,51.9l-0.3-0.6c1.5-0.7,3.1-1.2,4.7-1.7l0.2,0.7C76.8,50.7,75.2,51.3,73.7,51.9z
	 M104.6,51.2c-1.5-0.6-3.1-1.1-4.7-1.5l0.2-0.7c1.6,0.4,3.2,0.9,4.8,1.5L104.6,51.2z M82.2,49.3l-0.1-0.7c1.6-0.3,3.3-0.5,5-0.6
	l0,0.7C85.5,48.8,83.8,49,82.2,49.3z M96,49c-1.6-0.2-3.3-0.4-4.9-0.4l0-0.7c1.7,0,3.4,0.2,5,0.4L96,49z"/>
</svg>
