<?xml version="1.0" encoding="UTF-8"?>
<svg xmlns="http://www.w3.org/2000/svg" xmlns:xlink="http://www.w3.org/1999/xlink" width="1600" height="1600" version="1.1">
  <style type="text/css">path{stroke: rgba(255, 255, 255, 1.0); fill-rule: evenodd;}</style>
  <g transform="translate(800,810)">
    <path d="M0,357.77087639996637A357.77087639996637,357.77087639996637 0 1,1 0,-357.77087639996637A357.77087639996637,357.77087639996637 0 1,1 0,357.77087639996637Z" style="fill: transparent;" />
    <path d="M3.0981385716323095e-14,-505.9644256269407A505.9644256269407,505.9644256269407 0 0,1 142.54665130268344,-485.4693112879445L100.79570377156168,-343.27864206966854A357.77087639996637,357.77087639996637 0 0,0 2.1907147930568108e-14,-357.77087639996637Z" style="fill: white;" />
    <path d="M3.7944293264671344e-14,-619.6773353931867A619.6773353931867,619.6773353931867 0 0,1 70.63789313868278,-615.6381145225887L57.675598231672566,-502.6664155964855A505.9644256269407,505.9644256269407 0 0,0 3.0981385716323095e-14,-505.9644256269407Z" style="fill: white;" />
    <path d="M4.3814295861136216e-14,-715.5417527999327A715.5417527999327,715.5417527999327 0 0,1 20.43304663796533,-715.2499497414109L17.69553746519019,-619.4246265316048A619.6773353931867,619.6773353931867 0 0,0 3.7944293264671344e-14,-619.6773353931867Z" style="fill: white;" />
    <path d="M20.43304663796533,-715.2499497414109A715.5417527999327,715.5417527999327 0 0,1 40.84942779000896,-714.3747785646053L35.37664219620578,-618.6667060598312A619.6773353931867,619.6773353931867 0 0,0 17.69553746519019,-619.4246265316048Z" style="fill: white;" />
    <path d="M40.84942779000896,-714.3747785646053A715.5417527999327,715.5417527999327 0 0,1 61.23249156281816,-712.916953071681L53.02889323041683,-617.4041921486742A619.6773353931867,619.6773353931867 0 0,0 35.37664219620578,-618.6667060598312Z" style="fill: white;" />
    <path d="M61.23249156281816,-712.916953071681A715.5417527999327,715.5417527999327 0 0,1 81.56561323721306,-710.8776622860205L70.63789313868278,-615.6381145225887A619.6773353931867,619.6773353931867 0 0,0 53.02889323041683,-617.4041921486742Z" style="fill: white;" />
    <path d="M70.63789313868278,-615.6381145225887A619.6773353931867,619.6773353931867 0 0,1 157.53333994111472,-599.3189858556102L128.62543344404537,-489.34190283617795A505.9644256269407,505.9644256269407 0 0,0 57.675598231672566,-502.6664155964855Z" style="fill: transparent;" />
    <path d="M81.56561323721306,-710.8776622860205A715.5417527999327,715.5417527999327 0 0,1 101.83220882750538,-708.2585694824393L88.18927976810163,-613.3699136198184A619.6773353931867,619.6773353931867 0 0,0 70.63789313868278,-615.6381145225887Z" style="fill: transparent;" />
    <path d="M101.83220882750538,-708.2585694824393A715.5417527999327,715.5417527999327 0 0,1 122.01574860763549,-705.0618108305954L105.66873795598808,-610.6014394175538A619.6773353931867,619.6773353931867 0 0,0 88.18927976810163,-613.3699136198184Z" style="fill: transparent;" />
    <path d="M122.01574860763549,-705.0618108305954A715.5417527999327,715.5417527999327 0 0,1 142.09977059305334,-701.2899936526984L123.06201120552511,-607.3349499230645A619.6773353931867,619.6773353931867 0 0,0 105.66873795598808,-610.6014394175538Z" style="fill: transparent;" />
    <path d="M142.09977059305334,-701.2899936526984A715.5417527999327,715.5417527999327 0 0,1 162.06789396735016,-696.9461942969398L140.354913313568,-603.5731093320351A619.6773353931867,619.6773353931867 0 0,0 123.06201120552511,-607.3349499230645Z" style="fill: transparent;" />
    <path d="M162.06789396735016,-696.9461942969398A715.5417527999327,715.5417527999327 0 0,1 181.90383244268685,-692.0339556283802L157.53333994111472,-599.3189858556102A619.6773353931867,619.6773353931867 0 0,0 140.354913313568,-603.5731093320351Z" style="fill: transparent;" />
    <path d="M157.53333994111472,-599.3189858556102A619.6773353931867,619.6773353931867 0 0,1 174.58328011700672,-594.5760492179169L142.54665130268344,-485.4693112879445A505.9644256269407,505.9644256269407 0 0,0 128.62543344404537,-489.34190283617795Z" style="fill: white;" />
    <path d="M181.90383244268685,-692.0339556283802A715.5417527999327,715.5417527999327 0 0,1 201.59140754312335,-686.5572841393371L174.58328011700672,-594.5760492179169A619.6773353931867,619.6773353931867 0 0,0 157.53333994111472,-599.3189858556102Z" style="fill: white;" />
    <path d="M142.54665130268344,-485.4693112879445A505.9644256269407,505.9644256269407 0 0,1 382.38239930595716,-331.33623511626297L270.38518755562455,-234.29009870352985A357.77087639996637,357.77087639996637 0 0,0 100.79570377156168,-343.27864206966854Z" style="fill: transparent;" />
    <path d="M174.58328011700672,-594.5760492179169A619.6773353931867,619.6773353931867 0 0,1 191.4908276654788,-589.3481678261076L156.35160606788384,-481.2007640060365A505.9644256269407,505.9644256269407 0 0,0 142.54665130268344,-485.4693112879445Z" style="fill: transparent;" />
    <path d="M191.4908276654788,-589.3481678261076A619.6773353931867,619.6773353931867 0 0,1 208.2421925482351,-583.6396056152322L170.02903822052713,-476.53974247884355A505.9644256269407,505.9644256269407 0 0,0 156.35160606788384,-481.2007640060365Z" style="fill: transparent;" />
    <path d="M208.2421925482351,-583.6396056152322A619.6773353931867,619.6773353931867 0 0,1 349.77266984811286,-511.52622555185087L285.5881890329465,-417.65941421795105A505.9644256269407,505.9644256269407 0 0,0 170.02903822052713,-476.53974247884355Z" style="fill: white;" />
    <path d="M240.45737184872283,-673.9289668233627A715.5417527999327,715.5417527999327 0 0,1 259.6040614159193,-666.7876208331703L224.8237121118017,-577.4550185705115A619.6773353931867,619.6773353931867 0 0,0 208.2421925482351,-583.6396056152322Z" style="fill: white;" />
    <path d="M259.6040614159193,-666.7876208331703A715.5417527999327,715.5417527999327 0 0,1 278.5390141869625,-659.102433295277L241.2218622309837,-570.7994509298484A619.6773353931867,619.6773353931867 0 0,0 224.8237121118017,-577.4550185705115Z" style="fill: white;" />
    <path d="M278.5390141869625,-659.102433295277A715.5417527999327,715.5417527999327 0 0,1 297.24678654277665,-650.8796723588723L257.423268339335,-563.6783310696756A619.6773353931867,619.6773353931867 0 0,0 241.2218622309837,-570.7994509298484Z" style="fill: white;" />
    <path d="M297.24678654277665,-650.8796723588723A715.5417527999327,715.5417527999327 0 0,1 315.7121201558913,-642.1260446257199L273.4147163376469,-556.0974670774935A619.6773353931867,619.6773353931867 0 0,0 257.423268339335,-563.6783310696756Z" style="fill: white;" />
    <path d="M315.7121201558913,-642.1260446257199A715.5417527999327,715.5417527999327 0 0,1 333.9199544353514,-632.848689680158L289.18316337155653,-548.0630420147118A619.6773353931867,619.6773353931867 0 0,0 273.4147163376469,-556.0974670774935Z" style="fill: white;" />
    <path d="M333.9199544353514,-632.848689680158A715.5417527999327,715.5417527999327 0 0,1 351.8554388103528,-623.0551742659507L304.7157484694866,-539.5816088736536A619.6773353931867,619.6773353931867 0 0,0 289.18316337155653,-548.0630420147118Z" style="fill: white;" />
    <path d="M351.8554388103528,-623.0551742659507A715.5417527999327,715.5417527999327 0 0,1 369.50394484257885,-612.7534861147445L319.99980303223725,-530.660085232844A619.6773353931867,619.6773353931867 0 0,0 304.7157484694866,-539.5816088736536Z" style="fill: white;" />
    <path d="M369.50394484257885,-612.7534861147445A715.5417527999327,715.5417527999327 0 0,1 386.8510781573668,-601.9520274311591L335.02286116567905,-521.305747614931A619.6773353931867,619.6773353931867 0 0,0 319.99980303223725,-530.660085232844Z" style="fill: white;" />
    <path d="M386.8510781573668,-601.9520274311591A715.5417527999327,715.5417527999327 0 0,1 403.88269018396414,-590.6596080398288L349.77266984811286,-511.52622555185087A619.6773353931867,619.6773353931867 0 0,0 335.02286116567905,-521.305747614931Z" style="fill: white;" />
    <path d="M349.77266984811286,-511.52622555185087A619.6773353931867,619.6773353931867 0 0,1 364.23719892401175,-501.3294953620721L297.3984275681476,-409.3338188813542A505.9644256269407,505.9644256269407 0 0,0 285.5881890329465,-417.65941421795105Z" style="fill: transparent;" />
    <path d="M364.23719892401175,-501.3294953620721A619.6773353931867,619.6773353931867 0 0,1 378.40465091598776,-490.7238736449955L308.9661036800537,-400.67436501074826A505.9644256269407,505.9644256269407 0 0,0 297.3984275681476,-409.3338188813542Z" style="fill: transparent;" />
    <path d="M378.40465091598776,-490.7238736449955A619.6773353931867,619.6773353931867 0 0,1 392.26347064698354,-479.7180104978164L320.2817826061055,-391.6881153809181A505.9644256269407,505.9644256269407 0 0,0 308.9661036800537,-400.67436501074826Z" style="fill: transparent;" />
    <path d="M392.26347064698354,-479.7180104978164A619.6773353931867,619.6773353931867 0 0,1 405.80235466484083,-468.32088246038177L331.33623511626297,-382.38239930595716A505.9644256269407,505.9644256269407 0 0,0 320.2817826061055,-391.6881153809181Z" style="fill: transparent;" />
    <path d="M405.80235466484083,-468.32088246038177A619.6773353931867,619.6773353931867 0 0,1 419.0102604615581,-456.5417851937949L342.12044504049817,-372.7648066613739A505.9644256269407,505.9644256269407 0 0,0 331.33623511626297,-382.38239930595716Z" style="fill: transparent;" />
    <path d="M419.0102604615581,-456.5417851937949A619.6773353931867,619.6773353931867 0 0,1 431.87641547971833,-444.3903258987415L352.6256166225121,-362.8431816936803A505.9644256269407,505.9644256269407 0 0,0 342.12044504049817,-372.7648066613739Z" style="fill: transparent;" />
    <path d="M431.87641547971833,-444.3903258987415A619.6773353931867,619.6773353931867 0 0,1 444.3903258987416,-431.87641547971833L362.84318169368044,-352.6256166225121A505.9644256269407,505.9644256269407 0 0,0 352.6256166225121,-362.8431816936803Z" style="fill: transparent;" />
    <path d="M444.3903258987416,-431.87641547971833A619.6773353931867,619.6773353931867 0 0,1 456.5417851937951,-419.010260461558L372.764806661374,-342.12044504049805A505.9644256269407,505.9644256269407 0 0,0 362.84318169368044,-352.6256166225121Z" style="fill: transparent;" />
    <path d="M456.5417851937951,-419.010260461558A619.6773353931867,619.6773353931867 0 0,1 468.3208824603819,-405.8023546648408L382.3823993059572,-331.3362351162629A505.9644256269407,505.9644256269407 0 0,0 372.764806661374,-342.12044504049805Z" style="fill: transparent;" />
    <path d="M382.38239930595716,-331.33623511626297A505.9644256269407,505.9644256269407 0 0,1 466.0558000796445,-196.95682575661712L329.5512166476385,-139.26950709348125A357.77087639996637,357.77087639996637 0 0,0 270.38518755562455,-234.29009870352985Z" style="fill: white;" />
    <path d="M468.32088246038177,-405.80235466484083A619.6773353931867,619.6773353931867 0 0,1 521.3057476149311,-335.02286116567893L425.6443605455633,-273.5450206744011A505.9644256269407,505.9644256269407 0 0,0 382.38239930595716,-331.33623511626297Z" style="fill: transparent;" />
    <path d="M540.7703751112491,-468.5801974070597A715.5417527999327,715.5417527999327 0 0,1 553.9306449920521,-452.94684074258555L479.7180104978164,-392.2634706469835A619.6773353931867,619.6773353931867 0 0,0 468.32088246038177,-405.80235466484083Z" style="fill: transparent;" />
    <path d="M553.9306449920521,-452.94684074258555A715.5417527999327,715.5417527999327 0 0,1 566.6391210934281,-436.9440541379037L490.7238736449955,-378.40465091598765A619.6773353931867,619.6773353931867 0 0,0 479.7180104978164,-392.2634706469835Z" style="fill: transparent;" />
    <path d="M566.6391210934281,-436.9440541379037A715.5417527999327,715.5417527999327 0 0,1 578.8854381999832,-420.5848896953069L501.3294953620721,-364.23719892401175A619.6773353931867,619.6773353931867 0 0,0 490.7238736449955,-378.40465091598765Z" style="fill: transparent;" />
    <path d="M578.8854381999832,-420.5848896953069A715.5417527999327,715.5417527999327 0 0,1 590.6596080398288,-403.8826901839641L511.52622555185087,-349.7726698481128A619.6773353931867,619.6773353931867 0 0,0 501.3294953620721,-364.23719892401175Z" style="fill: transparent;" />
    <path d="M590.6596080398288,-403.8826901839641A715.5417527999327,715.5417527999327 0 0,1 601.9520274311592,-386.85107815736677L521.3057476149311,-335.02286116567893A619.6773353931867,619.6773353931867 0 0,0 511.52622555185087,-349.7726698481128Z" style="fill: transparent;" />
    <path d="M521.3057476149311,-335.02286116567893A619.6773353931867,619.6773353931867 0 0,1 530.6600852328442,-319.9998030322372L433.2821452274329,-261.2787450733675A505.9644256269407,505.9644256269407 0 0,0 425.6443605455633,-273.5450206744011Z" style="fill: white;" />
    <path d="M530.6600852328442,-319.9998030322372A619.6773353931867,619.6773353931867 0 0,1 539.5816088736539,-304.7157484694864L440.56653877681987,-248.7993667801686A505.9644256269407,505.9644256269407 0 0,0 433.2821452274329,-261.2787450733675Z" style="fill: white;" />
    <path d="M539.5816088736539,-304.7157484694864A619.6773353931867,619.6773353931867 0 0,1 548.0630420147118,-289.18316337155653L447.49159993786077,-236.11706415473992A505.9644256269407,505.9644256269407 0 0,0 440.56653877681987,-248.7993667801686Z" style="fill: white;" />
    <path d="M548.0630420147118,-289.18316337155653A619.6773353931867,619.6773353931867 0 0,1 556.0974670774937,-273.4147163376468L454.05168053134224,-223.24218106501266A505.9644256269407,505.9644256269407 0 0,0 447.49159993786077,-236.11706415473992Z" style="fill: white;" />
    <path d="M556.0974670774937,-273.4147163376468A619.6773353931867,619.6773353931867 0 0,1 563.6783310696756,-257.423268339335L460.2414300614369,-210.18521845030753A505.9644256269407,505.9644256269407 0 0,0 454.05168053134224,-223.24218106501266Z" style="fill: white;" />
    <path d="M563.6783310696756,-257.423268339335A619.6773353931867,619.6773353931867 0 0,1 570.7994509298484,-241.22186223098365L466.0558000796445,-196.95682575661712A505.9644256269407,505.9644256269407 0 0,0 460.2414300614369,-210.18521845030753Z" style="fill: white;" />
    <path d="M466.0558000796445,-196.95682575661712A505.9644256269407,505.9644256269407 0 0,1 485.4693112879445,-142.54665130268341L343.27864206966854,-100.79570377156165A357.77087639996637,357.77087639996637 0 0,0 329.5512166476385,-139.26950709348125Z" style="fill: white;" />
    <path d="M570.7994509298484,-241.22186223098365A619.6773353931867,619.6773353931867 0 0,1 577.4550185705115,-224.82371211180168L471.49004830237914,-183.56779225076545A505.9644256269407,505.9644256269407 0 0,0 466.0558000796445,-196.95682575661712Z" style="fill: white;" />
    <path d="M577.4550185705115,-224.82371211180168A619.6773353931867,619.6773353931867 0 0,1 583.6396056152322,-208.24219254823507L476.53974247884355,-170.0290382205271A505.9644256269407,505.9644256269407 0 0,0 471.49004830237914,-183.56779225076545Z" style="fill: white;" />
    <path d="M583.6396056152322,-208.24219254823507A619.6773353931867,619.6773353931867 0 0,1 589.3481678261076,-191.49082766547878L481.2007640060365,-156.3516060678838A505.9644256269407,505.9644256269407 0 0,0 476.53974247884355,-170.0290382205271Z" style="fill: white;" />
    <path d="M589.3481678261076,-191.49082766547878A619.6773353931867,619.6773353931867 0 0,1 594.5760492179169,-174.5832801170067L485.4693112879445,-142.54665130268341A505.9644256269407,505.9644256269407 0 0,0 481.2007640060365,-156.3516060678838Z" style="fill: white;" />
    <path d="M485.4693112879445,-142.54665130268341A505.9644256269407,505.9644256269407 0 0,1 489.341902836178,-128.62543344404534L346.01697781419017,-90.9519162213434A357.77087639996637,357.77087639996637 0 0,0 343.27864206966854,-100.79570377156165Z" style="fill: transparent;" />
    <path d="M594.5760492179169,-174.5832801170067A619.6773353931867,619.6773353931867 0 0,1 599.3189858556103,-157.5333399411147L489.341902836178,-128.62543344404534A505.9644256269407,505.9644256269407 0 0,0 485.4693112879445,-142.54665130268341Z" style="fill: transparent;" />
    <path d="M489.341902836178,-128.62543344404534A505.9644256269407,505.9644256269407 0 0,1 505.7580897054889,-14.44834583800635L357.62497487070544,-10.216523318982722A357.77087639996637,357.77087639996637 0 0,0 346.01697781419017,-90.9519162213434Z" style="fill: white;" />
    <path d="M599.3189858556103,-157.5333399411147A619.6773353931867,619.6773353931867 0 0,1 603.5731093320351,-140.3549133135681L492.81538010952323,-114.59930683693572A505.9644256269407,505.9644256269407 0 0,0 489.341902836178,-128.62543344404534Z" style="fill: white;" />
    <path d="M603.5731093320351,-140.3549133135681A619.6773353931867,619.6773353931867 0 0,1 607.3349499230645,-123.06201120552508L495.88691009009386,-100.47971139140073A505.9644256269407,505.9644256269407 0 0,0 492.81538010952323,-114.59930683693572Z" style="fill: white;" />
    <path d="M607.3349499230645,-123.06201120552508A619.6773353931867,619.6773353931867 0 0,1 610.6014394175538,-105.66873795598805L498.55398759398076,-86.27816325201206A505.9644256269407,505.9644256269407 0 0,0 495.88691009009386,-100.47971139140073Z" style="fill: white;" />
    <path d="M610.6014394175538,-105.66873795598805A619.6773353931867,619.6773353931867 0 0,1 613.3699136198184,-88.18927976810173L500.81443731451634,-72.00624540513374A505.9644256269407,505.9644256269407 0 0,0 498.55398759398076,-86.27816325201206Z" style="fill: white;" />
    <path d="M613.3699136198184,-88.18927976810173A619.6773353931867,619.6773353931867 0 0,1 615.6381145225887,-70.63789313868274L502.6664155964855,-57.67559823167254A505.9644256269407,505.9644256269407 0 0,0 500.81443731451634,-72.00624540513374Z" style="fill: white;" />
    <path d="M615.6381145225887,-70.63789313868274A619.6773353931867,619.6773353931867 0 0,1 617.4041921486742,-53.02889323041679L504.10841193983725,-43.29791001301675A505.9644256269407,505.9644256269407 0 0,0 502.6664155964855,-57.67559823167254Z" style="fill: white;" />
    <path d="M617.4041921486742,-53.02889323041679A619.6773353931867,619.6773353931867 0 0,1 618.6667060598312,-35.37664219620574L505.13925023167064,-28.884907397905504A505.9644256269407,505.9644256269407 0 0,0 504.10841193983725,-43.29791001301675Z" style="fill: white;" />
    <path d="M618.6667060598312,-35.37664219620574A619.6773353931867,619.6773353931867 0 0,1 619.4246265316048,-17.69553746519015L505.7580897054889,-14.448345838006237A505.9644256269407,505.9644256269407 0 0,0 505.13925023167064,-28.884907397905504Z" style="fill: white;" />
    <path d="M505.7580897054889,-14.44834583800635A505.9644256269407,505.9644256269407 0 0,1 -57.675598231672176,502.66641559648554L-40.782806618606244,355.4388311430103A357.77087639996637,357.77087639996637 0 0,0 357.62497487070544,-10.216523318982722Z" style="fill: white;" />
    <path d="M619.4246265316048,-17.695537465190288A619.6773353931867,619.6773353931867 0 0,1 619.6773353931867,-1.3759600911837626e-13L505.9644256269407,-1.1234667099445443e-13A505.9644256269407,505.9644256269407 0 0,0 505.7580897054889,-14.44834583800635Z" style="fill: white;" />
    <path d="M619.6773353931867,-1.3759600911837626e-13A619.6773353931867,619.6773353931867 0 0,1 619.4246265316048,17.69553746519015L505.7580897054889,14.448345838006237A505.9644256269407,505.9644256269407 0 0,0 505.9644256269407,-1.1234667099445443e-13Z" style="fill: white;" />
    <path d="M619.4246265316048,17.69553746519015A619.6773353931867,619.6773353931867 0 0,1 618.6667060598312,35.37664219620546L505.13925023167064,28.88490739790528A505.9644256269407,505.9644256269407 0 0,0 505.7580897054889,14.448345838006237Z" style="fill: white;" />
    <path d="M618.6667060598312,35.37664219620546A619.6773353931867,619.6773353931867 0 0,1 617.4041921486743,53.02889323041652L504.1084119398373,43.297910013016526A505.9644256269407,505.9644256269407 0 0,0 505.13925023167064,28.88490739790528Z" style="fill: white;" />
    <path d="M617.4041921486743,53.02889323041652A619.6773353931867,619.6773353931867 0 0,1 615.6381145225888,70.63789313868233L502.66641559648554,57.675598231672204A505.9644256269407,505.9644256269407 0 0,0 504.1084119398373,43.297910013016526Z" style="fill: white;" />
    <path d="M615.6381145225888,70.63789313868233A619.6773353931867,619.6773353931867 0 0,1 613.3699136198185,88.18927976810117L500.8144373145164,72.0062454051333A505.9644256269407,505.9644256269407 0 0,0 502.66641559648554,57.675598231672204Z" style="fill: white;" />
    <path d="M613.3699136198185,88.18927976810117A619.6773353931867,619.6773353931867 0 0,1 610.601439417554,105.66873795598737L498.5539875939809,86.27816325201152A505.9644256269407,505.9644256269407 0 0,0 500.8144373145164,72.0062454051333Z" style="fill: white;" />
    <path d="M610.601439417554,105.66873795598737A619.6773353931867,619.6773353931867 0 0,1 607.3349499230646,123.0620112055244L495.886910090094,100.47971139140019A505.9644256269407,505.9644256269407 0 0,0 498.5539875939809,86.27816325201152Z" style="fill: white;" />
    <path d="M607.3349499230646,123.0620112055244A619.6773353931867,619.6773353931867 0 0,1 603.5731093320353,140.35491331356715L492.81538010952335,114.59930683693496A505.9644256269407,505.9644256269407 0 0,0 495.886910090094,100.47971139140019Z" style="fill: white;" />
    <path d="M603.5731093320353,140.35491331356715A619.6773353931867,619.6773353931867 0 0,1 599.3189858556105,157.53333994111378L489.3419028361782,128.62543344404457A505.9644256269407,505.9644256269407 0 0,0 492.81538010952335,114.59930683693496Z" style="fill: white;" />
    <path d="M599.3189858556105,157.53333994111378A619.6773353931867,619.6773353931867 0 0,1 594.5760492179172,174.58328011700564L485.4693112879448,142.54665130268256A505.9644256269407,505.9644256269407 0 0,0 489.3419028361782,128.62543344404457Z" style="fill: white;" />
    <path d="M594.5760492179172,174.58328011700564A619.6773353931867,619.6773353931867 0 0,1 589.3481678261079,191.49082766547772L481.20076400603676,156.35160606788298A505.9644256269407,505.9644256269407 0 0,0 485.4693112879448,142.54665130268256Z" style="fill: white;" />
    <path d="M589.3481678261079,191.49082766547772A619.6773353931867,619.6773353931867 0 0,1 583.6396056152327,208.24219254823376L476.53974247884395,170.02903822052605A505.9644256269407,505.9644256269407 0 0,0 481.20076400603676,156.35160606788298Z" style="fill: white;" />
    <path d="M583.6396056152327,208.24219254823376A619.6773353931867,619.6773353931867 0 0,1 577.4550185705119,224.82371211180038L471.49004830237953,183.5677922507644A505.9644256269407,505.9644256269407 0 0,0 476.53974247884395,170.02903822052605Z" style="fill: white;" />
    <path d="M577.4550185705119,224.82371211180038A619.6773353931867,619.6773353931867 0 0,1 570.7994509298488,241.22186223098228L466.05580007964494,196.956825756616A505.9644256269407,505.9644256269407 0 0,0 471.49004830237953,183.5677922507644Z" style="fill: white;" />
    <path d="M570.7994509298488,241.22186223098228A619.6773353931867,619.6773353931867 0 0,1 563.6783310696762,257.42326833933356L460.2414300614374,210.18521845030642A505.9644256269407,505.9644256269407 0 0,0 466.05580007964494,196.956825756616Z" style="fill: white;" />
    <path d="M563.6783310696762,257.42326833933356A619.6773353931867,619.6773353931867 0 0,1 556.0974670774945,273.4147163376453L454.05168053134287,223.24218106501147A505.9644256269407,505.9644256269407 0 0,0 460.2414300614374,210.18521845030642Z" style="fill: white;" />
    <path d="M556.0974670774945,273.4147163376453A619.6773353931867,619.6773353931867 0 0,1 548.0630420147124,289.18316337155505L447.4915999378614,236.1170641547387A505.9644256269407,505.9644256269407 0 0,0 454.05168053134287,223.24218106501147Z" style="fill: white;" />
    <path d="M548.0630420147124,289.18316337155505A619.6773353931867,619.6773353931867 0 0,1 105.66873795598971,610.6014394175536L86.27816325201343,498.55398759398054A505.9644256269407,505.9644256269407 0 0,0 447.4915999378614,236.1170641547387Z" style="fill: transparent;" />
    <path d="M632.8486896801588,333.91995443534967A715.5417527999327,715.5417527999327 0 0,1 623.0551742659518,351.8554388103508L539.5816088736547,304.7157484694848A619.6773353931867,619.6773353931867 0 0,0 548.0630420147124,289.18316337155505Z" style="fill: transparent;" />
    <path d="M623.0551742659518,351.8554388103508A715.5417527999327,715.5417527999327 0 0,1 612.7534861147458,369.50394484257686L530.6600852328451,319.99980303223555A619.6773353931867,619.6773353931867 0 0,0 539.5816088736547,304.7157484694848Z" style="fill: transparent;" />
    <path d="M612.7534861147458,369.50394484257686A715.5417527999327,715.5417527999327 0 0,1 601.9520274311604,386.85107815736467L521.3057476149322,335.02286116567717A619.6773353931867,619.6773353931867 0 0,0 530.6600852328451,319.99980303223555Z" style="fill: transparent;" />
    <path d="M601.9520274311604,386.85107815736467A715.5417527999327,715.5417527999327 0 0,1 590.65960803983,403.88269018396215L511.52622555185206,349.77266984811115A619.6773353931867,619.6773353931867 0 0,0 521.3057476149322,335.02286116567717Z" style="fill: transparent;" />
    <path d="M590.65960803983,403.88269018396215A715.5417527999327,715.5417527999327 0 0,1 578.8854381999847,420.58488969530487L501.32949536207343,364.23719892400993A619.6773353931867,619.6773353931867 0 0,0 511.52622555185206,349.77266984811115Z" style="fill: transparent;" />
    <path d="M578.8854381999847,420.58488969530487A715.5417527999327,715.5417527999327 0 0,1 566.6391210934298,436.94405413790156L490.7238736449969,378.4046509159858A619.6773353931867,619.6773353931867 0 0,0 501.32949536207343,364.23719892400993Z" style="fill: transparent;" />
    <path d="M566.6391210934298,436.94405413790156A715.5417527999327,715.5417527999327 0 0,1 553.930644992054,452.9468407425833L479.71801049781806,392.2634706469815A619.6773353931867,619.6773353931867 0 0,0 490.7238736449969,378.4046509159858Z" style="fill: transparent;" />
    <path d="M553.930644992054,452.9468407425833A715.5417527999327,715.5417527999327 0 0,1 540.7703751112509,468.58019740705754L468.3208824603834,405.80235466483896A619.6773353931867,619.6773353931867 0 0,0 479.71801049781806,392.2634706469815Z" style="fill: transparent;" />
    <path d="M540.7703751112509,468.58019740705754A715.5417527999327,715.5417527999327 0 0,1 527.1690451559018,483.83137334138934L456.5417851937968,419.01026046155613A619.6773353931867,619.6773353931867 0 0,0 468.3208824603834,405.80235466483896Z" style="fill: transparent;" />
    <path d="M527.1690451559018,483.83137334138934A715.5417527999327,715.5417527999327 0 0,1 513.1377485658102,498.6879294677298L444.39032589874347,431.87641547971634A619.6773353931867,619.6773353931867 0 0,0 456.5417851937968,419.01026046155613Z" style="fill: transparent;" />
    <path d="M513.1377485658102,498.6879294677298A715.5417527999327,715.5417527999327 0 0,1 498.6879294677346,513.1377485658055L431.8764154797205,444.3903258987394A619.6773353931867,619.6773353931867 0 0,0 444.39032589874347,431.87641547971634Z" style="fill: transparent;" />
    <path d="M498.6879294677346,513.1377485658055A715.5417527999327,715.5417527999327 0 0,1 483.8313733413941,527.1690451558974L419.0102604615603,456.541785193793A619.6773353931867,619.6773353931867 0 0,0 431.8764154797205,444.3903258987394Z" style="fill: transparent;" />
    <path d="M483.8313733413941,527.1690451558974A715.5417527999327,715.5417527999327 0 0,1 468.5801974070623,540.7703751112467L405.8023546648431,468.3208824603798A619.6773353931867,619.6773353931867 0 0,0 419.0102604615603,456.541785193793Z" style="fill: transparent;" />
    <path d="M468.5801974070623,540.7703751112467A715.5417527999327,715.5417527999327 0 0,1 452.9468407425885,553.9306449920498L392.26347064698604,479.7180104978144A619.6773353931867,619.6773353931867 0 0,0 405.8023546648431,468.3208824603798Z" style="fill: transparent;" />
    <path d="M452.9468407425885,553.9306449920498A715.5417527999327,715.5417527999327 0 0,1 436.9440541379069,566.6391210934257L378.40465091599043,490.72387364499343A619.6773353931867,619.6773353931867 0 0,0 392.26347064698604,479.7180104978144Z" style="fill: transparent;" />
    <path d="M436.9440541379069,566.6391210934257A715.5417527999327,715.5417527999327 0 0,1 420.58488969531,578.885438199981L364.2371989240144,501.32949536207025A619.6773353931867,619.6773353931867 0 0,0 378.40465091599043,490.72387364499343Z" style="fill: transparent;" />
    <path d="M420.58488969531,578.885438199981A715.5417527999327,715.5417527999327 0 0,1 403.88269018396744,590.6596080398265L349.7726698481157,511.52622555184894A619.6773353931867,619.6773353931867 0 0,0 364.2371989240144,501.32949536207025Z" style="fill: transparent;" />
    <path d="M403.88269018396744,590.6596080398265A715.5417527999327,715.5417527999327 0 0,1 386.8510781573703,601.9520274311568L335.02286116568206,521.305747614929A619.6773353931867,619.6773353931867 0 0,0 349.7726698481157,511.52622555184894Z" style="fill: transparent;" />
    <path d="M386.8510781573703,601.9520274311568A715.5417527999327,715.5417527999327 0 0,1 369.50394484258237,612.7534861147424L319.9998030322403,530.6600852328422A619.6773353931867,619.6773353931867 0 0,0 335.02286116568206,521.305747614929Z" style="fill: transparent;" />
    <path d="M369.50394484258237,612.7534861147424A715.5417527999327,715.5417527999327 0 0,1 351.8554388103563,623.0551742659486L304.71574846948965,539.5816088736519A619.6773353931867,619.6773353931867 0 0,0 319.9998030322403,530.6600852328422Z" style="fill: transparent;" />
    <path d="M351.8554388103563,623.0551742659486A715.5417527999327,715.5417527999327 0 0,1 333.91995443535535,632.848689680156L289.18316337155994,548.0630420147099A619.6773353931867,619.6773353931867 0 0,0 304.71574846948965,539.5816088736519Z" style="fill: transparent;" />
    <path d="M333.91995443535535,632.848689680156A715.5417527999327,715.5417527999327 0 0,1 315.7121201558954,642.1260446257179L273.4147163376505,556.0974670774918A619.6773353931867,619.6773353931867 0 0,0 289.18316337155994,548.0630420147099Z" style="fill: transparent;" />
    <path d="M315.7121201558954,642.1260446257179A715.5417527999327,715.5417527999327 0 0,1 297.24678654278085,650.8796723588704L257.4232683393386,563.6783310696738A619.6773353931867,619.6773353931867 0 0,0 273.4147163376505,556.0974670774918Z" style="fill: transparent;" />
    <path d="M297.24678654278085,650.8796723588704A715.5417527999327,715.5417527999327 0 0,1 278.53901418696694,659.1024332952752L241.2218622309875,570.7994509298467A619.6773353931867,619.6773353931867 0 0,0 257.4232683393386,563.6783310696738Z" style="fill: transparent;" />
    <path d="M278.53901418696694,659.1024332952752A715.5417527999327,715.5417527999327 0 0,1 259.60406141592387,666.7876208331685L224.82371211180566,577.4550185705099A619.6773353931867,619.6773353931867 0 0,0 241.2218622309875,570.7994509298467Z" style="fill: transparent;" />
    <path d="M259.60406141592387,666.7876208331685A715.5417527999327,715.5417527999327 0 0,1 240.45737184872763,673.928966823361L208.24219254823925,583.6396056152307A619.6773353931867,619.6773353931867 0 0,0 224.82371211180566,577.4550185705099Z" style="fill: transparent;" />
    <path d="M240.45737184872763,673.928966823361A715.5417527999327,715.5417527999327 0 0,1 221.1145618000217,680.5206466816304L191.49082766548298,589.3481678261062A619.6773353931867,619.6773353931867 0 0,0 208.24219254823925,583.6396056152307Z" style="fill: transparent;" />
    <path d="M221.1145618000217,680.5206466816304A715.5417527999327,715.5417527999327 0 0,1 201.59140754312838,686.5572841393356L174.5832801170111,594.5760492179156A619.6773353931867,619.6773353931867 0 0,0 191.49082766548298,589.3481678261062Z" style="fill: transparent;" />
    <path d="M201.59140754312838,686.5572841393356A715.5417527999327,715.5417527999327 0 0,1 181.90383244269205,692.0339556283789L157.53333994111924,599.3189858556091A619.6773353931867,619.6773353931867 0 0,0 174.5832801170111,594.5760492179156Z" style="fill: transparent;" />
    <path d="M181.90383244269205,692.0339556283789A715.5417527999327,715.5417527999327 0 0,1 162.06789396735573,696.9461942969385L140.35491331357284,603.5731093320339A619.6773353931867,619.6773353931867 0 0,0 157.53333994111924,599.3189858556091Z" style="fill: transparent;" />
    <path d="M162.06789396735573,696.9461942969385A715.5417527999327,715.5417527999327 0 0,1 142.0997705930588,701.2899936526973L123.06201120552984,607.3349499230635A619.6773353931867,619.6773353931867 0 0,0 140.35491331357284,603.5731093320339Z" style="fill: transparent;" />
    <path d="M142.0997705930588,701.2899936526973A715.5417527999327,715.5417527999327 0 0,1 122.01574860764113,705.0618108305945L105.66873795599297,610.601439417553A619.6773353931867,619.6773353931867 0 0,0 123.06201120552984,607.3349499230635Z" style="fill: transparent;" />
    <path d="M105.66873795598971,610.6014394175536A619.6773353931867,619.6773353931867 0 0,1 88.18927976810353,613.3699136198181L72.00624540513522,500.8144373145161A505.9644256269407,505.9644256269407 0 0,0 86.27816325201343,498.55398759398054Z" style="fill: white;" />
    <path d="M88.18927976810353,613.3699136198181A619.6773353931867,619.6773353931867 0 0,1 70.63789313868483,615.6381145225885L57.67559823167424,502.66641559648525A505.9644256269407,505.9644256269407 0 0,0 72.00624540513522,500.8144373145161Z" style="fill: white;" />
    <path d="M70.63789313868483,615.6381145225885A619.6773353931867,619.6773353931867 0 0,1 53.028893230418745,617.404192148674L43.297910013018345,504.10841193983714A505.9644256269407,505.9644256269407 0 0,0 57.67559823167424,502.66641559648525Z" style="fill: white;" />
    <path d="M53.028893230418745,617.404192148674A619.6773353931867,619.6773353931867 0 0,1 35.37664219620783,618.6667060598311L28.884907397907217,505.1392502316706A505.9644256269407,505.9644256269407 0 0,0 43.297910013018345,504.10841193983714Z" style="fill: white;" />
    <path d="M35.37664219620783,618.6667060598311A619.6773353931867,619.6773353931867 0 0,1 17.695537465192526,619.4246265316046L14.448345838008176,505.7580897054888A505.9644256269407,505.9644256269407 0 0,0 28.884907397907217,505.1392502316706Z" style="fill: white;" />
    <path d="M17.695537465192526,619.4246265316046A619.6773353931867,619.6773353931867 0 0,1 2.514672457395444e-12,619.6773353931867L2.053221463616503e-12,505.9644256269407A505.9644256269407,505.9644256269407 0 0,0 14.448345838008176,505.7580897054888Z" style="fill: white;" />
    <path d="M2.514672457395444e-12,619.6773353931867A619.6773353931867,619.6773353931867 0 0,1 -17.695537465187773,619.4246265316049L-14.448345838004297,505.75808970548894A505.9644256269407,505.9644256269407 0 0,0 2.053221463616503e-12,505.9644256269407Z" style="fill: white;" />
    <path d="M-17.695537465187773,619.4246265316049A619.6773353931867,619.6773353931867 0 0,1 -35.37664219620336,618.6667060598313L-28.884907397903568,505.13925023167076A505.9644256269407,505.9644256269407 0 0,0 -14.448345838004297,505.75808970548894Z" style="fill: white;" />
    <path d="M-35.37664219620336,618.6667060598313A619.6773353931867,619.6773353931867 0 0,1 -53.02889323041429,617.4041921486745L-43.29791001301471,504.1084119398375A505.9644256269407,505.9644256269407 0 0,0 -28.884907397903568,505.13925023167076Z" style="fill: white;" />
    <path d="M-53.02889323041429,617.4041921486745A619.6773353931867,619.6773353931867 0 0,1 -70.63789313868011,615.6381145225889L-57.67559823167039,502.6664155964857A505.9644256269407,505.9644256269407 0 0,0 -43.29791001301471,504.1084119398375Z" style="fill: white;" />
    <path d="M-57.675598231672176,502.66641559648554A505.9644256269407,505.9644256269407 0 0,1 -196.95682575661667,466.05580007964465L-139.26950709348094,329.5512166476387A357.77087639996637,357.77087639996637 0 0,0 -40.782806618606244,355.4388311430103Z" style="fill: white;" />
    <path d="M-70.6378931386823,615.6381145225888A619.6773353931867,619.6773353931867 0 0,1 -88.189279768101,613.3699136198185L-72.00624540513316,500.81443731451645A505.9644256269407,505.9644256269407 0 0,0 -57.675598231672176,502.66641559648554Z" style="fill: white;" />
    <path d="M-88.189279768101,613.3699136198185A619.6773353931867,619.6773353931867 0 0,1 -105.66873795598745,610.601439417554L-86.2781632520116,498.5539875939809A505.9644256269407,505.9644256269407 0 0,0 -72.00624540513316,500.81443731451645Z" style="fill: white;" />
    <path d="M-105.66873795598745,610.601439417554A619.6773353931867,619.6773353931867 0 0,1 -123.06201120552437,607.3349499230646L-100.47971139140016,495.886910090094A505.9644256269407,505.9644256269407 0 0,0 -86.2781632520116,498.5539875939809Z" style="fill: white;" />
    <path d="M-123.06201120552437,607.3349499230646A619.6773353931867,619.6773353931867 0 0,1 -140.35491331356712,603.5731093320353L-114.59930683693493,492.81538010952335A505.9644256269407,505.9644256269407 0 0,0 -100.47971139140016,495.886910090094Z" style="fill: white;" />
    <path d="M-140.35491331356712,603.5731093320353A619.6773353931867,619.6773353931867 0 0,1 -157.53333994111358,599.3189858556105L-128.62543344404443,489.34190283617824A505.9644256269407,505.9644256269407 0 0,0 -114.59930683693493,492.81538010952335Z" style="fill: white;" />
    <path d="M-157.53333994111358,599.3189858556105A619.6773353931867,619.6773353931867 0 0,1 -174.58328011700573,594.5760492179172L-142.54665130268262,485.4693112879447A505.9644256269407,505.9644256269407 0 0,0 -128.62543344404443,489.34190283617824Z" style="fill: white;" />
    <path d="M-174.58328011700573,594.5760492179172A619.6773353931867,619.6773353931867 0 0,1 -191.4908276654777,589.348167826108L-156.35160606788295,481.2007640060368A505.9644256269407,505.9644256269407 0 0,0 -142.54665130268262,485.4693112879447Z" style="fill: white;" />
    <path d="M-191.4908276654777,589.348167826108A619.6773353931867,619.6773353931867 0 0,1 -208.2421925482337,583.6396056152327L-170.02903822052602,476.53974247884395A505.9644256269407,505.9644256269407 0 0,0 -156.35160606788295,481.2007640060368Z" style="fill: white;" />
    <path d="M-208.2421925482337,583.6396056152327A619.6773353931867,619.6773353931867 0 0,1 -224.82371211180023,577.455018570512L-183.56779225076428,471.4900483023796A505.9644256269407,505.9644256269407 0 0,0 -170.02903822052602,476.53974247884395Z" style="fill: white;" />
    <path d="M-224.82371211180023,577.455018570512A619.6773353931867,619.6773353931867 0 0,1 -241.22186223098234,570.7994509298488L-196.95682575661607,466.05580007964494A505.9644256269407,505.9644256269407 0 0,0 -183.56779225076428,471.4900483023796Z" style="fill: white;" />
    <path d="M-196.95682575661667,466.05580007964465A505.9644256269407,505.9644256269407 0 0,1 -454.051680531342,223.2421810650131L-321.06302231285986,157.85606007794587A357.77087639996637,357.77087639996637 0 0,0 -139.26950709348094,329.5512166476387Z" style="fill: transparent;" />
    <path d="M-241.2218622309831,570.7994509298485A619.6773353931867,619.6773353931867 0 0,1 -257.4232683393343,563.6783310696759L-210.185218450307,460.24143006143714A505.9644256269407,505.9644256269407 0 0,0 -196.95682575661667,466.05580007964465Z" style="fill: transparent;" />
    <path d="M-257.4232683393343,563.6783310696759A619.6773353931867,619.6773353931867 0 0,1 -273.414716337646,556.0974670774941L-223.24218106501203,454.0516805313426A505.9644256269407,505.9644256269407 0 0,0 -210.185218450307,460.24143006143714Z" style="fill: transparent;" />
    <path d="M-273.414716337646,556.0974670774941A619.6773353931867,619.6773353931867 0 0,1 -289.18316337155574,548.0630420147121L-236.11706415473927,447.4915999378611A505.9644256269407,505.9644256269407 0 0,0 -223.24218106501203,454.0516805313426Z" style="fill: transparent;" />
    <path d="M-289.18316337155574,548.0630420147121A619.6773353931867,619.6773353931867 0 0,1 -304.71574846948556,539.5816088736543L-248.7993667801679,440.56653877682027A505.9644256269407,505.9644256269407 0 0,0 -236.11706415473927,447.4915999378611Z" style="fill: transparent;" />
    <path d="M-304.71574846948556,539.5816088736543A619.6773353931867,619.6773353931867 0 0,1 -319.99980303223623,530.6600852328447L-261.2787450733667,433.2821452274334A505.9644256269407,505.9644256269407 0 0,0 -248.7993667801679,440.56653877682027Z" style="fill: transparent;" />
    <path d="M-319.99980303223623,530.6600852328447A619.6773353931867,619.6773353931867 0 0,1 -335.02286116567785,521.3057476149318L-273.5450206744002,425.64436054556387A505.9644256269407,505.9644256269407 0 0,0 -261.2787450733667,433.2821452274334Z" style="fill: transparent;" />
    <path d="M-335.02286116567785,521.3057476149318A619.6773353931867,619.6773353931867 0 0,1 -364.23719892401056,501.329495362073L-297.39842756814664,409.3338188813549A505.9644256269407,505.9644256269407 0 0,0 -273.5450206744002,425.64436054556387Z" style="fill: white;" />
    <path d="M-386.85107815736546,601.95202743116A715.5417527999327,715.5417527999327 0 0,1 -403.8826901839629,590.6596080398295L-349.7726698481118,511.52622555185167A619.6773353931867,619.6773353931867 0 0,0 -335.02286116567785,521.3057476149318Z" style="fill: white;" />
    <path d="M-403.8826901839629,590.6596080398295A715.5417527999327,715.5417527999327 0 0,1 -420.58488969530555,578.8854381999842L-364.23719892401056,501.329495362073A619.6773353931867,619.6773353931867 0 0,0 -349.7726698481118,511.52622555185167Z" style="fill: white;" />
    <path d="M-364.23719892401056,501.329495362073A619.6773353931867,619.6773353931867 0 0,1 -378.40465091598645,490.72387364499644L-308.96610368005264,400.67436501074906A505.9644256269407,505.9644256269407 0 0,0 -297.39842756814664,409.3338188813549Z" style="fill: transparent;" />
    <path d="M-378.40465091598645,490.72387364499644A619.6773353931867,619.6773353931867 0 0,1 -392.2634706469823,479.7180104978174L-320.28178260610446,391.6881153809189A505.9644256269407,505.9644256269407 0 0,0 -308.96610368005264,400.67436501074906Z" style="fill: transparent;" />
    <path d="M-392.2634706469823,479.7180104978174A619.6773353931867,619.6773353931867 0 0,1 -405.8023546648395,468.3208824603829L-331.33623511626195,382.3823993059581A505.9644256269407,505.9644256269407 0 0,0 -320.28178260610446,391.6881153809189Z" style="fill: transparent;" />
    <path d="M-405.8023546648395,468.3208824603829A619.6773353931867,619.6773353931867 0 0,1 -444.39032589874034,431.8764154797195L-362.8431816936794,352.62561662251306A505.9644256269407,505.9644256269407 0 0,0 -331.33623511626195,382.3823993059581Z" style="fill: white;" />
    <path d="M-468.5801974070582,540.7703751112504A715.5417527999327,715.5417527999327 0 0,1 -483.83137334138996,527.1690451559011L-419.0102604615567,456.5417851937962A619.6773353931867,619.6773353931867 0 0,0 -405.8023546648395,468.3208824603829Z" style="fill: white;" />
    <path d="M-483.83137334138996,527.1690451559011A715.5417527999327,715.5417527999327 0 0,1 -498.68792946773044,513.1377485658095L-431.8764154797169,444.3903258987429A619.6773353931867,619.6773353931867 0 0,0 -419.0102604615567,456.5417851937962Z" style="fill: white;" />
    <path d="M-498.68792946773044,513.1377485658095A715.5417527999327,715.5417527999327 0 0,1 -513.1377485658063,498.68792946773374L-444.3903258987402,431.87641547971975A619.6773353931867,619.6773353931867 0 0,0 -431.8764154797169,444.3903258987429Z" style="fill: white;" />
    <path d="M-444.39032589874034,431.8764154797195A619.6773353931867,619.6773353931867 0 0,1 -456.54178519379366,419.0102604615594L-372.76480666137286,342.12044504049925A505.9644256269407,505.9644256269407 0 0,0 -362.8431816936794,352.62561662251306Z" style="fill: transparent;" />
    <path d="M-456.54178519379366,419.0102604615594A619.6773353931867,619.6773353931867 0 0,1 -468.32088246038063,405.80235466484214L-382.38239930595626,331.33623511626405A505.9644256269407,505.9644256269407 0 0,0 -372.76480666137286,342.12044504049925Z" style="fill: transparent;" />
    <path d="M-468.32088246038063,405.80235466484214A619.6773353931867,619.6773353931867 0 0,1 -511.5262255518501,349.7726698481141L-417.65941421795037,285.5881890329475A505.9644256269407,505.9644256269407 0 0,0 -382.38239930595626,331.33623511626405Z" style="fill: transparent;" />
    <path d="M-540.7703751112477,468.58019740706123A715.5417527999327,715.5417527999327 0 0,1 -553.9306449920507,452.9468407425873L-479.7180104978152,392.263470646985A619.6773353931867,619.6773353931867 0 0,0 -468.32088246038063,405.80235466484214Z" style="fill: transparent;" />
    <path d="M-553.9306449920507,452.9468407425873A715.5417527999327,715.5417527999327 0 0,1 -566.6391210934269,436.94405413790537L-490.7238736449944,378.4046509159891A619.6773353931867,619.6773353931867 0 0,0 -479.7180104978152,392.263470646985Z" style="fill: transparent;" />
    <path d="M-566.6391210934269,436.94405413790537A715.5417527999327,715.5417527999327 0 0,1 -578.8854381999816,420.5848896953091L-501.32949536207076,364.23719892401357A619.6773353931867,619.6773353931867 0 0,0 -490.7238736449944,378.4046509159891Z" style="fill: transparent;" />
    <path d="M-578.8854381999816,420.5848896953091A715.5417527999327,715.5417527999327 0 0,1 -590.6596080398274,403.88269018396613L-511.52622555184973,349.7726698481146A619.6773353931867,619.6773353931867 0 0,0 -501.32949536207076,364.23719892401357Z" style="fill: transparent;" />
    <path d="M-511.5262255518501,349.7726698481141A619.6773353931867,619.6773353931867 0 0,1 -521.3057476149299,335.0228611656807L-425.6443605455624,273.5450206744025A505.9644256269407,505.9644256269407 0 0,0 -417.65941421795037,285.5881890329475Z" style="fill: transparent;" />
    <path d="M-521.3057476149299,335.0228611656807A619.6773353931867,619.6773353931867 0 0,1 -530.660085232843,319.99980303223896L-433.282145227432,261.27874507336884A505.9644256269407,505.9644256269407 0 0,0 -425.6443605455624,273.5450206744025Z" style="fill: transparent;" />
    <path d="M-530.660085232843,319.99980303223896A619.6773353931867,619.6773353931867 0 0,1 -539.5816088736528,304.71574846948806L-440.56653877681913,248.79936678016995A505.9644256269407,505.9644256269407 0 0,0 -433.282145227432,261.27874507336884Z" style="fill: transparent;" />
    <path d="M-539.5816088736528,304.71574846948806A619.6773353931867,619.6773353931867 0 0,1 -548.0630420147106,289.1831633715585L-447.4915999378599,236.11706415474154A505.9644256269407,505.9644256269407 0 0,0 -440.56653877681913,248.79936678016995Z" style="fill: transparent;" />
    <path d="M-548.0630420147106,289.1831633715585A619.6773353931867,619.6773353931867 0 0,1 -556.0974670774926,273.4147163376488L-454.0516805313414,223.24218106501434A505.9644256269407,505.9644256269407 0 0,0 -447.4915999378599,236.11706415474154Z" style="fill: transparent;" />
    <path d="M-454.051680531342,223.2421810650131A505.9644256269407,505.9644256269407 0 0,1 -9.917175251046047e-13,-505.9644256269407L-7.012501870230063e-13,-357.77087639996637A357.77087639996637,357.77087639996637 0 0,0 -321.06302231285986,157.85606007794587Z" style="fill: white;" />
    <path d="M-556.0974670774934,273.41471633764735A619.6773353931867,619.6773353931867 0 0,1 -589.3481678261073,191.49082766547937L-481.20076400603637,156.35160606788432A505.9644256269407,505.9644256269407 0 0,0 -454.051680531342,223.2421810650131Z" style="fill: transparent;" />
    <path d="M-642.1260446257197,315.71212015589174A715.5417527999327,715.5417527999327 0 0,1 -650.8796723588721,297.24678654277716L-563.6783310696753,257.4232683393354A619.6773353931867,619.6773353931867 0 0,0 -556.0974670774934,273.41471633764735Z" style="fill: transparent;" />
    <path d="M-650.8796723588721,297.24678654277716A715.5417527999327,715.5417527999327 0 0,1 -659.1024332952767,278.5390141869634L-570.799450929848,241.2218622309845A619.6773353931867,619.6773353931867 0 0,0 -563.6783310696753,257.4232683393354Z" style="fill: transparent;" />
    <path d="M-659.1024332952767,278.5390141869634A715.5417527999327,715.5417527999327 0 0,1 -666.78762083317,259.60406141592006L-577.4550185705111,224.82371211180237A619.6773353931867,619.6773353931867 0 0,0 -570.799450929848,241.2218622309845Z" style="fill: transparent;" />
    <path d="M-666.78762083317,259.60406141592006A715.5417527999327,715.5417527999327 0 0,1 -673.9289668233623,240.45737184872405L-583.6396056152319,208.24219254823615A619.6773353931867,619.6773353931867 0 0,0 -577.4550185705111,224.82371211180237Z" style="fill: transparent;" />
    <path d="M-673.9289668233623,240.45737184872405A715.5417527999327,715.5417527999327 0 0,1 -680.5206466816315,221.11456180001812L-589.3481678261072,191.4908276654799A619.6773353931867,619.6773353931867 0 0,0 -583.6396056152319,208.24219254823615Z" style="fill: transparent;" />
    <path d="M-589.3481678261073,191.49082766547937A619.6773353931867,619.6773353931867 0 0,1 -619.6773353931867,6.262726230028478e-13L-505.9644256269407,5.113494554104639e-13A505.9644256269407,505.9644256269407 0 0,0 -481.20076400603637,156.35160606788432Z" style="fill: white;" />
    <path d="M-680.5206466816317,221.11456180001753A715.5417527999327,715.5417527999327 0 0,1 -686.557284139337,201.59140754312386L-594.5760492179168,174.58328011700718A619.6773353931867,619.6773353931867 0 0,0 -589.3481678261073,191.49082766547937Z" style="fill: white;" />
    <path d="M-686.557284139337,201.59140754312386A715.5417527999327,715.5417527999327 0 0,1 -692.03395562838,181.9038324426878L-599.31898585561,157.53333994111554A619.6773353931867,619.6773353931867 0 0,0 -594.5760492179168,174.58328011700718Z" style="fill: white;" />
    <path d="M-692.03395562838,181.9038324426878A715.5417527999327,715.5417527999327 0 0,1 -696.9461942969397,162.06789396735113L-603.573109332035,140.35491331356883A619.6773353931867,619.6773353931867 0 0,0 -599.31898585561,157.53333994111554Z" style="fill: white;" />
    <path d="M-696.9461942969397,162.06789396735113A715.5417527999327,715.5417527999327 0 0,1 -701.2899936526981,142.09977059305479L-607.3349499230642,123.06201120552636A619.6773353931867,619.6773353931867 0 0,0 -603.573109332035,140.35491331356883Z" style="fill: white;" />
    <path d="M-701.2899936526981,142.09977059305479A715.5417527999327,715.5417527999327 0 0,1 -705.0618108305952,122.01574860763678L-610.6014394175537,105.6687379559892A619.6773353931867,619.6773353931867 0 0,0 -607.3349499230642,123.06201120552636Z" style="fill: white;" />
    <path d="M-705.0618108305952,122.01574860763678A715.5417527999327,715.5417527999327 0 0,1 -708.2585694824392,101.83220882750669L-613.3699136198182,88.18927976810276A619.6773353931867,619.6773353931867 0 0,0 -610.6014394175537,105.6687379559892Z" style="fill: white;" />
    <path d="M-708.2585694824392,101.83220882750669A715.5417527999327,715.5417527999327 0 0,1 -710.8776622860203,81.56561323721483L-615.6381145225885,70.63789313868433A619.6773353931867,619.6773353931867 0 0,0 -613.3699136198182,88.18927976810276Z" style="fill: white;" />
    <path d="M-710.8776622860203,81.56561323721483A715.5417527999327,715.5417527999327 0 0,1 -712.916953071681,61.23249156281979L-617.4041921486742,53.02889323041824A619.6773353931867,619.6773353931867 0 0,0 -615.6381145225885,70.63789313868433Z" style="fill: white;" />
    <path d="M-712.916953071681,61.23249156281979A715.5417527999327,715.5417527999327 0 0,1 -714.3747785646052,40.84942779001043L-618.6667060598312,35.37664219620705A619.6773353931867,619.6773353931867 0 0,0 -617.4041921486742,53.02889323041824Z" style="fill: white;" />
    <path d="M-714.3747785646052,40.84942779001043A715.5417527999327,715.5417527999327 0 0,1 -715.2499497414108,20.433046637967436L-619.4246265316046,17.695537465192015A619.6773353931867,619.6773353931867 0 0,0 -618.6667060598312,35.37664219620705Z" style="fill: white;" />
    <path d="M-715.2499497414108,20.433046637967436A715.5417527999327,715.5417527999327 0 0,1 -715.5417527999327,1.994214821416178e-12L-619.6773353931867,1.7270406959498576e-12A619.6773353931867,619.6773353931867 0 0,0 -619.4246265316046,17.695537465192015Z" style="fill: white;" />
    <path d="M-619.6773353931867,6.262726230028478e-13A619.6773353931867,619.6773353931867 0 0,1 -583.6396056152324,-208.24219254823447L-476.5397424788437,-170.02903822052664A505.9644256269407,505.9644256269407 0 0,0 -505.9644256269407,5.113494554104639e-13Z" style="fill: white;" />
    <path d="M-715.5417527999327,7.231573349535744e-13A715.5417527999327,715.5417527999327 0 0,1 -715.2499497414109,-20.43304663796472L-619.4246265316048,-17.695537465189663A619.6773353931867,619.6773353931867 0 0,0 -619.6773353931867,6.262726230028478e-13Z" style="fill: white;" />
    <path d="M-715.2499497414109,-20.43304663796472A715.5417527999327,715.5417527999327 0 0,1 -714.3747785646054,-40.84942779000772L-618.6667060598313,-35.3766421962047A619.6773353931867,619.6773353931867 0 0,0 -619.4246265316048,-17.695537465189663Z" style="fill: white;" />
    <path d="M-714.3747785646054,-40.84942779000772A715.5417527999327,715.5417527999327 0 0,1 -712.9169530716812,-61.23249156281708L-617.4041921486744,-53.02889323041589A619.6773353931867,619.6773353931867 0 0,0 -618.6667060598313,-35.3766421962047Z" style="fill: white;" />
    <path d="M-712.9169530716812,-61.23249156281708A715.5417527999327,715.5417527999327 0 0,1 -710.8776622860206,-81.56561323721213L-615.6381145225888,-70.63789313868199A619.6773353931867,619.6773353931867 0 0,0 -617.4041921486744,-53.02889323041589Z" style="fill: white;" />
    <path d="M-710.8776622860206,-81.56561323721213A715.5417527999327,715.5417527999327 0 0,1 -708.2585694824396,-101.83220882750399L-613.3699136198186,-88.18927976810042A619.6773353931867,619.6773353931867 0 0,0 -615.6381145225888,-70.63789313868199Z" style="fill: white;" />
    <path d="M-708.2585694824396,-101.83220882750399A715.5417527999327,715.5417527999327 0 0,1 -692.0339556283806,-181.90383244268577L-599.3189858556105,-157.5333399411138A619.6773353931867,619.6773353931867 0 0,0 -613.3699136198186,-88.18927976810042Z" style="fill: white;" />
    <path d="M-791.8571535047464,-113.85187061862653A800,800 0 0,1 -788.2830686781547,-136.4177541060976L-705.0618108305956,-122.01574860763412A715.5417527999327,715.5417527999327 0 0,0 -708.2585694824396,-101.83220882750399Z" style="fill: white;" />
    <path d="M-788.2830686781547,-136.4177541060976A800,800 0 0,1 -784.0660488739151,-158.87237331659506L-701.2899936526986,-142.0997705930521A715.5417527999327,715.5417527999327 0 0,0 -705.0618108305956,-122.01574860763412Z" style="fill: white;" />
    <path d="M-784.0660488739151,-158.87237331659506A800,800 0 0,1 -779.2095335538672,-181.19741394060964L-696.9461942969402,-162.06789396734848A715.5417527999327,715.5417527999327 0 0,0 -701.2899936526986,-142.0997705930521Z" style="fill: white;" />
    <path d="M-779.2095335538672,-181.19741394060964A800,800 0 0,1 -773.7174837615662,-203.37466735478782L-692.0339556283807,-181.90383244268517A715.5417527999327,715.5417527999327 0 0,0 -696.9461942969402,-162.06789396734848Z" style="fill: white;" />
    <path d="M-692.0339556283806,-181.90383244268577A715.5417527999327,715.5417527999327 0 0,1 -686.5572841393374,-201.59140754312187L-594.5760492179172,-174.58328011700544A619.6773353931867,619.6773353931867 0 0,0 -599.3189858556105,-157.5333399411138Z" style="fill: white;" />
    <path d="M-686.5572841393374,-201.59140754312187A715.5417527999327,715.5417527999327 0 0,1 -680.5206466816325,-221.11456180001554L-589.348167826108,-191.49082766547767A619.6773353931867,619.6773353931867 0 0,0 -594.5760492179172,-174.58328011700544Z" style="fill: white;" />
    <path d="M-680.5206466816325,-221.11456180001554A715.5417527999327,715.5417527999327 0 0,1 -673.9289668233631,-240.45737184872152L-583.6396056152327,-208.24219254823396A619.6773353931867,619.6773353931867 0 0,0 -589.348167826108,-191.49082766547767Z" style="fill: white;" />
    <path d="M-583.6396056152324,-208.24219254823447A619.6773353931867,619.6773353931867 0 0,1 -556.0974670774939,-273.4147163376462L-454.05168053134247,-223.2421810650122A505.9644256269407,505.9644256269407 0 0,0 -476.5397424788437,-170.02903822052664Z" style="fill: transparent;" />
    <path d="M-673.9289668233629,-240.45737184872212A715.5417527999327,715.5417527999327 0 0,1 -666.7876208331705,-259.6040614159187L-577.4550185705117,-224.8237121118012A619.6773353931867,619.6773353931867 0 0,0 -583.6396056152324,-208.24219254823447Z" style="fill: transparent;" />
    <path d="M-666.7876208331705,-259.6040614159187A715.5417527999327,715.5417527999327 0 0,1 -659.1024332952775,-278.53901418696154L-570.7994509298487,-241.22186223098282A619.6773353931867,619.6773353931867 0 0,0 -577.4550185705117,-224.8237121118012Z" style="fill: transparent;" />
    <path d="M-659.1024332952775,-278.53901418696154A715.5417527999327,715.5417527999327 0 0,1 -650.8796723588728,-297.24678654277585L-563.6783310696759,-257.42326833933424A619.6773353931867,619.6773353931867 0 0,0 -570.7994509298487,-241.22186223098282Z" style="fill: transparent;" />
    <path d="M-650.8796723588728,-297.24678654277585A715.5417527999327,715.5417527999327 0 0,1 -642.1260446257204,-315.71212015589043L-556.0974670774939,-273.4147163376462A619.6773353931867,619.6773353931867 0 0,0 -563.6783310696759,-257.42326833933424Z" style="fill: transparent;" />
    <path d="M-556.0974670774939,-273.4147163376462A619.6773353931867,619.6773353931867 0 0,1 -530.6600852328443,-319.9998030322369L-433.28214522743303,-261.27874507336725A505.9644256269407,505.9644256269407 0 0,0 -454.05168053134247,-223.2421810650122Z" style="fill: white;" />
    <path d="M-642.1260446257204,-315.71212015589043A715.5417527999327,715.5417527999327 0 0,1 -632.8486896801583,-333.9199544353507L-548.063042014712,-289.1831633715559A619.6773353931867,619.6773353931867 0 0,0 -556.0974670774939,-273.4147163376462Z" style="fill: white;" />
    <path d="M-632.8486896801583,-333.9199544353507A715.5417527999327,715.5417527999327 0 0,1 -623.0551742659511,-351.8554388103521L-539.581608873654,-304.71574846948596A619.6773353931867,619.6773353931867 0 0,0 -548.063042014712,-289.1831633715559Z" style="fill: white;" />
    <path d="M-623.0551742659511,-351.8554388103521A715.5417527999327,715.5417527999327 0 0,1 -612.7534861147451,-369.5039448425779L-530.6600852328445,-319.99980303223646A619.6773353931867,619.6773353931867 0 0,0 -539.581608873654,-304.71574846948596Z" style="fill: white;" />
    <path d="M-530.6600852328443,-319.9998030322369A619.6773353931867,619.6773353931867 0 0,1 -17.6955374651904,-619.4246265316048L-14.448345838006443,-505.7580897054889A505.9644256269407,505.9644256269407 0 0,0 -433.28214522743303,-261.27874507336725Z" style="fill: transparent;" />
    <path d="M-612.7534861147448,-369.50394484257845A715.5417527999327,715.5417527999327 0 0,1 -578.8854381999832,-420.58488969530686L-501.3294953620721,-364.2371989240117A619.6773353931867,619.6773353931867 0 0,0 -530.6600852328443,-319.9998030322369Z" style="fill: white;" />
    <path d="M-685.0792242012714,-413.11796931116913A800,800 0 0,1 -673.0028262649452,-432.51265396447775L-601.9520274311593,-386.8510781573665A715.5417527999327,715.5417527999327 0 0,0 -612.7534861147448,-369.50394484257845Z" style="fill: white;" />
    <path d="M-673.0028262649452,-432.51265396447775A800,800 0 0,1 -660.3775175702198,-451.55457509341454L-590.6596080398292,-403.88269018396335A715.5417527999327,715.5417527999327 0 0,0 -601.9520274311593,-386.8510781573665Z" style="fill: white;" />
    <path d="M-660.3775175702198,-451.55457509341454A800,800 0 0,1 -647.2135954999584,-470.2282018339778L-578.8854381999836,-420.5848896953063A715.5417527999327,715.5417527999327 0 0,0 -590.6596080398292,-403.88269018396335Z" style="fill: white;" />
    <path d="M-578.8854381999832,-420.58488969530686A715.5417527999327,715.5417527999327 0 0,1 -513.137748565808,-498.687929467732L-444.3903258987416,-431.8764154797182A619.6773353931867,619.6773353931867 0 0,0 -501.3294953620721,-364.2371989240117Z" style="fill: white;" />
    <path d="M-647.2135954999579,-470.2282018339784A800,800 0 0,1 -633.5217967378205,-488.51830370834995L-566.6391210934285,-436.94405413790327A715.5417527999327,715.5417527999327 0 0,0 -578.8854381999832,-420.58488969530686Z" style="fill: white;" />
    <path d="M-633.5217967378205,-488.51830370834995A800,800 0 0,1 -619.3132885112664,-506.40996304709586L-553.9306449920524,-452.94684074258515A715.5417527999327,715.5417527999327 0 0,0 -566.6391210934285,-436.94405413790327Z" style="fill: white;" />
    <path d="M-619.3132885112664,-506.40996304709586A800,800 0 0,1 -604.599659483407,-523.8885871562277L-540.7703751112493,-468.5801974070594A715.5417527999327,715.5417527999327 0 0,0 -553.9306449920524,-452.94684074258515Z" style="fill: white;" />
    <path d="M-604.599659483407,-523.8885871562277A800,800 0 0,1 -589.3929103011246,-540.9399202192149L-527.1690451559003,-483.83137334139093A715.5417527999327,715.5417527999327 0 0,0 -540.7703751112493,-468.5801974070594Z" style="fill: white;" />
    <path d="M-589.3929103011246,-540.9399202192149A800,800 0 0,1 -573.7054438071715,-557.5500549242341L-513.1377485658085,-498.6879294677316A715.5417527999327,715.5417527999327 0 0,0 -527.1690451559003,-483.83137334139093Z" style="fill: white;" />
    <path d="M-513.137748565808,-498.687929467732A715.5417527999327,715.5417527999327 0 0,1 -468.58019740706004,-540.7703751112488L-405.8023546648411,-468.3208824603816A619.6773353931867,619.6773353931867 0 0,0 -444.3903258987416,-431.8764154797182Z" style="fill: transparent;" />
    <path d="M-573.7054438071709,-557.5500549242346A800,800 0 0,1 -557.5500549242353,-573.7054438071702L-498.6879294677326,-513.1377485658073A715.5417527999327,715.5417527999327 0 0,0 -513.137748565808,-498.687929467732Z" style="fill: transparent;" />
    <path d="M-557.5500549242353,-573.7054438071702A800,800 0 0,1 -540.939920219216,-589.3929103011235L-483.831373341392,-527.1690451558993A715.5417527999327,715.5417527999327 0 0,0 -498.6879294677326,-513.1377485658073Z" style="fill: transparent;" />
    <path d="M-540.939920219216,-589.3929103011235A800,800 0 0,1 -523.8885871562285,-604.5996594834063L-468.58019740706004,-540.7703751112488A715.5417527999327,715.5417527999327 0 0,0 -483.831373341392,-527.1690451558993Z" style="fill: transparent;" />
    <path d="M-468.58019740706004,-540.7703751112488A715.5417527999327,715.5417527999327 0 0,1 -452.94684074258583,-553.930644992052L-392.2634706469837,-479.71801049781624A619.6773353931867,619.6773353931867 0 0,0 -405.8023546648411,-468.3208824603816Z" style="fill: transparent;" />
    <path d="M-452.94684074258583,-553.930644992052A715.5417527999327,715.5417527999327 0 0,1 -403.8826901839641,-590.6596080398288L-349.7726698481128,-511.52622555185087A619.6773353931867,619.6773353931867 0 0,0 -392.2634706469837,-479.71801049781624Z" style="fill: white;" />
    <path d="M-506.4099630470966,-619.3132885112657A800,800 0 0,1 -488.51830370835074,-633.5217967378198L-436.94405413790395,-566.639121093428A715.5417527999327,715.5417527999327 0 0,0 -452.94684074258583,-553.930644992052Z" style="fill: white;" />
    <path d="M-488.51830370835074,-633.5217967378198A800,800 0 0,1 -470.2282018339792,-647.2135954999575L-420.58488969530754,-578.8854381999828A715.5417527999327,715.5417527999327 0 0,0 -436.94405413790395,-566.639121093428Z" style="fill: white;" />
    <path d="M-470.2282018339792,-647.2135954999575A800,800 0 0,1 -451.55457509341596,-660.3775175702187L-403.88269018396466,-590.6596080398284A715.5417527999327,715.5417527999327 0 0,0 -420.58488969530754,-578.8854381999828Z" style="fill: white;" />
    <path d="M-403.8826901839641,-590.6596080398288A715.5417527999327,715.5417527999327 0 0,1 -122.01574860763557,-705.0618108305954L-105.66873795598815,-610.6014394175538A619.6773353931867,619.6773353931867 0 0,0 -349.7726698481128,-511.52622555185087Z" style="fill: transparent;" />
    <path d="M-451.55457509341534,-660.3775175702191A800,800 0 0,1 -432.5126539644786,-673.0028262649446L-386.8510781573672,-601.9520274311589A715.5417527999327,715.5417527999327 0 0,0 -403.8826901839641,-590.6596080398288Z" style="fill: transparent;" />
    <path d="M-432.5126539644786,-673.0028262649446A800,800 0 0,1 -413.11796931116993,-685.079224201271L-369.5039448425792,-612.7534861147444A715.5417527999327,715.5417527999327 0 0,0 -386.8510781573672,-601.9520274311589Z" style="fill: transparent;" />
    <path d="M-413.11796931116993,-685.079224201271A800,800 0 0,1 -393.3863397164833,-696.5968616958216L-351.85543881035284,-623.0551742659507A715.5417527999327,715.5417527999327 0 0,0 -369.5039448425792,-612.7534861147444Z" style="fill: transparent;" />
    <path d="M-393.3863397164833,-696.5968616958216A800,800 0 0,1 -373.33385858053975,-707.5463447982511L-333.91995443535205,-632.8486896801577A715.5417527999327,715.5417527999327 0 0,0 -351.85543881035284,-623.0551742659507Z" style="fill: transparent;" />
    <path d="M-373.33385858053975,-707.5463447982511A800,800 0 0,1 -352.97688099457775,-717.9187429530864L-315.7121201558918,-642.1260446257197A715.5417527999327,715.5417527999327 0 0,0 -333.91995443535205,-632.8486896801577Z" style="fill: transparent;" />
    <path d="M-352.97688099457775,-717.9187429530864A800,800 0 0,1 -332.3320104015097,-727.7055962836143L-297.24678654277716,-650.8796723588721A715.5417527999327,715.5417527999327 0 0,0 -315.7121201558918,-642.1260446257197Z" style="fill: transparent;" />
    <path d="M-332.3320104015097,-727.7055962836143A800,800 0 0,1 -311.41608505391434,-736.8989224918796L-278.53901418696347,-659.1024332952766A715.5417527999327,715.5417527999327 0 0,0 -297.24678654277716,-650.8796723588721Z" style="fill: transparent;" />
    <path d="M-311.41608505391434,-736.8989224918796A800,800 0 0,1 -290.2461642805138,-745.4912233691615L-259.6040614159201,-666.78762083317A715.5417527999327,715.5417527999327 0 0,0 -278.53901418696347,-659.1024332952766Z" style="fill: transparent;" />
    <path d="M-290.2461642805138,-745.4912233691615A800,800 0 0,1 -268.83951457234565,-753.4754909116192L-240.4573718487241,-673.9289668233622A715.5417527999327,715.5417527999327 0 0,0 -259.6040614159201,-666.78762083317Z" style="fill: transparent;" />
    <path d="M-268.83951457234565,-753.4754909116192A800,800 0 0,1 -247.21359549995944,-760.8452130361223L-221.11456180001815,-680.5206466816315A715.5417527999327,715.5417527999327 0 0,0 -240.4573718487241,-673.9289668233622Z" style="fill: transparent;" />
    <path d="M-247.21359549995944,-760.8452130361223A800,800 0 0,1 -225.38604547314512,-767.5943788915976L-201.5914075431245,-686.5572841393367A715.5417527999327,715.5417527999327 0 0,0 -221.11456180001815,-680.5206466816315Z" style="fill: transparent;" />
    <path d="M-225.38604547314512,-767.5943788915976A800,800 0 0,1 -203.3746673547915,-773.7174837615652L-181.90383244268847,-692.0339556283798A715.5417527999327,715.5417527999327 0 0,0 -201.5914075431245,-686.5572841393367Z" style="fill: transparent;" />
    <path d="M-203.3746673547915,-773.7174837615652A800,800 0 0,1 -181.19741394061336,-779.2095335538664L-162.0678939673518,-696.9461942969394A715.5417527999327,715.5417527999327 0 0,0 -181.90383244268847,-692.0339556283798Z" style="fill: transparent;" />
    <path d="M-181.19741394061336,-779.2095335538664A800,800 0 0,1 -158.8723733165981,-784.0660488739144L-142.0997705930548,-701.2899936526981A715.5417527999327,715.5417527999327 0 0,0 -162.0678939673518,-696.9461942969394Z" style="fill: transparent;" />
    <path d="M-158.8723733165981,-784.0660488739144A800,800 0 0,1 -136.41775410610134,-788.283068678154L-122.01574860763746,-705.0618108305952A715.5417527999327,715.5417527999327 0 0,0 -142.0997705930548,-701.2899936526981Z" style="fill: transparent;" />
    <path d="M-122.01574860763557,-705.0618108305954A715.5417527999327,715.5417527999327 0 0,1 -101.8322088275061,-708.2585694824393L-88.18927976810224,-613.3699136198184A619.6773353931867,619.6773353931867 0 0,0 -105.66873795598815,-610.6014394175538Z" style="fill: transparent;" />
    <path d="M-101.8322088275061,-708.2585694824393A715.5417527999327,715.5417527999327 0 0,1 -81.56561323721361,-710.8776622860205L-70.63789313868327,-615.6381145225886A619.6773353931867,619.6773353931867 0 0,0 -88.18927976810224,-613.3699136198184Z" style="fill: transparent;" />
    <path d="M-81.56561323721361,-710.8776622860205A715.5417527999327,715.5417527999327 0 0,1 -61.232491562818566,-712.916953071681L-53.02889323041718,-617.4041921486742A619.6773353931867,619.6773353931867 0 0,0 -70.63789313868327,-615.6381145225886Z" style="fill: transparent;" />
    <path d="M-61.232491562818566,-712.916953071681A715.5417527999327,715.5417527999327 0 0,1 -40.84942779000984,-714.3747785646053L-35.37664219620654,-618.6667060598312A619.6773353931867,619.6773353931867 0 0,0 -53.02889323041718,-617.4041921486742Z" style="fill: transparent;" />
    <path d="M-40.84942779000984,-714.3747785646053A715.5417527999327,715.5417527999327 0 0,1 -20.43304663796621,-715.2499497414109L-17.695537465190952,-619.4246265316048A619.6773353931867,619.6773353931867 0 0,0 -35.37664219620654,-618.6667060598312Z" style="fill: transparent;" />
    <path d="M-17.6955374651904,-619.4246265316048A619.6773353931867,619.6773353931867 0 0,1 -6.64216916267519e-13,-619.6773353931867L-5.42330841126787e-13,-505.9644256269407A505.9644256269407,505.9644256269407 0 0,0 -14.448345838006443,-505.7580897054889Z" style="fill: white;" />
  </g>
</svg>