<?xml version="1.0" encoding="utf-8"?>
<!-- Generator: Adobe Illustrator 19.1.0, SVG Export Plug-In . SVG Version: 6.00 Build 0)  -->
<svg version="1.1" id="Layer_1" xmlns="http://www.w3.org/2000/svg" xmlns:xlink="http://www.w3.org/1999/xlink" x="0px" y="0px"
	 viewBox="0 0 50.1 45.3" style="enable-background:new 0 0 50.1 45.3;" xml:space="preserve">
<style type="text/css">
	.st0{fill:#FFFFFF;}
</style>
<g>
	<path class="st0" d="M10.7,41.1c-1.4-1.3-2.8-2.6-4.2-4c4-4,7.8-7.8,11.6-11.6c-4.5-7.5-1.4-15.5,3.9-19.1c5.6-3.7,13.2-2.9,17.8,2
		c4.7,5,5.1,12.6,0.9,18.1c-4.1,5.2-11.7,7.2-18.4,3.2c-0.1,0.1-0.3,0.2-0.4,0.3c-3.6,3.6-7.1,7.1-10.7,10.7
		c-0.1,0.1-0.2,0.3-0.3,0.4C10.8,41.1,10.7,41.1,10.7,41.1z M18.7,18c0,6.1,5.1,11.1,11.1,11c6.1-0.1,11-5,11-11
		c0-6.1-5-11.1-11.1-11.1C23.7,6.9,18.6,12,18.7,18z M9.7,37.2c3-3,6-6,8.9-8.8c-0.2-0.3-0.5-0.7-0.7-1.1c-3.1,3.1-6,6-9,9
		C9.1,36.6,9.4,36.9,9.7,37.2z"/>
	<path class="st0" d="M24.9,13.3c0.1-0.6,0.1-1.2,0.3-1.9c0.6-2.4,2.6-3.7,5.1-3.5c2.7,0.2,4.1,1.8,4.5,4.4c0.2,2,0,3.8-1.3,5.3
		c-1.8,2.3-5.2,2.4-7.1,0.1C25.3,16.5,24.9,15,24.9,13.3z"/>
	<path class="st0" d="M28.9,24.1c0.2-1.2,0.8-2.1-0.1-3.2c0.8,0,1.4,0,2.2,0c-0.8,1.1-0.3,2-0.1,3.2c0.9-1,1.8-1.8,2.6-2.7
		c0.3-0.3,0.6-0.4,1-0.3c1.4,0.4,2.6,1.1,3.7,2.1c-2,3-4.7,4.6-8.2,4.7c-3.7,0.1-6.5-1.5-8.6-4.5c1.2-1.2,2.6-1.9,4.1-2.4
		c0.2-0.1,0.5,0.1,0.7,0.3C27.1,22.2,27.9,23.1,28.9,24.1z"/>
</g>
</svg>
