<?xml version="1.0" encoding="UTF-8"?>
<svg xmlns="http://www.w3.org/2000/svg" id="Layer_1" data-name="Layer 1" viewBox="0 0 601.6 555.14" preserveAspectRatio="xMinYMin">
  <defs>
    <style>
        .cls-1, .cls-2{
            fill:none;stroke:#fff;stroke-miterlimit:10;stroke-width:0.4px;
            }
         .cls-1{
            opacity:0.25;
         }
         .cls-2{
            opacity:0.15;
            }
         .cls-3{fill:#979696;}
         .cls-4{fill:#f08300;}
        </style>
  </defs>
  <title>Jobs Background</title>
  <line class="cls-1" x1="367.6" y1="0.1" x2="458.43" y2="74.4" />
  <line class="cls-1" x1="458.43" y1="74.4" x2="423.47" y2="75.13" />
  <line class="cls-1" x1="424.74" y1="75.78" x2="446.79" y2="0.1" />
  <path class="cls-2" d="M598.09,60.76" transform="translate(0.09 0.1)" />
  <line class="cls-1" x1="364.62" y1="0.1" x2="424.74" y2="75.78" />
  <line class="cls-1" x1="458.43" y1="74.4" x2="546.35" y2="69.32" />
  <path class="cls-1" d="M546.27,69.22" transform="translate(0.09 0.1)" />
  <line class="cls-2" x1="460.14" y1="0.1" x2="598.18" y2="60.85" />
  <line class="cls-1" x1="598.18" y1="60.85" x2="546.35" y2="69.32" />
  <path class="cls-2" d="M598.09,60.76" transform="translate(0.09 0.1)" />
  <path class="cls-2" d="M598.09,60.76" transform="translate(0.09 0.1)" />
  <line class="cls-1" x1="458.43" y1="74.4" x2="507.56" y2="106.15" />
  <line class="cls-1" x1="507.56" y1="106.15" x2="546.35" y2="69.32" />
  <line class="cls-1" x1="458.43" y1="74.4" x2="415.22" y2="168.88" />
  <line class="cls-1" x1="415.22" y1="168.88" x2="488.26" y2="153.34" />
  <line class="cls-1" x1="488.26" y1="153.34" x2="458.43" y2="74.4" />
  <line class="cls-1" x1="458.43" y1="74.4" x2="448.97" y2="0.1" />
  <line class="cls-1" x1="423.47" y1="75.13" x2="398.34" y2="100.38" />
  <line class="cls-1" x1="398.34" y1="100.38" x2="458.43" y2="74.4" />
  <line class="cls-1" x1="398.34" y1="100.38" x2="359.07" y2="122.1" />
  <line class="cls-1" x1="359.07" y1="122.1" x2="359.08" y2="0.1" />
  <line class="cls-1" x1="359.07" y1="122.1" x2="362.86" y2="202.71" />
  <line class="cls-1" x1="362.86" y1="202.71" x2="415.22" y2="168.88" />
  <line class="cls-1" x1="415.22" y1="168.88" x2="398.34" y2="100.38" />
  <line class="cls-1" x1="359.07" y1="122.1" x2="262.97" y2="94.63" />
  <line class="cls-1" x1="251.84" y1="63.78" x2="325.82" y2="134.82" />
  <line class="cls-1" x1="325.82" y1="134.82" x2="359.07" y2="122.1" />
  <line class="cls-1" x1="306.51" y1="151.33" x2="325.82" y2="134.82" />
  <line class="cls-1" x1="306.51" y1="151.33" x2="362.86" y2="202.71" />
  <line class="cls-1" x1="362.86" y1="202.71" x2="449.93" y2="271.88" />
  <line class="cls-1" x1="415.22" y1="168.88" x2="449.93" y2="271.88" />
  <line class="cls-1" x1="362.86" y1="202.71" x2="385.74" y2="303.13" />
  <line class="cls-1" x1="325.82" y1="134.82" x2="362.86" y2="202.71" />
  <line class="cls-1" x1="362.86" y1="202.71" x2="274.78" y2="217.28" />
  <line class="cls-1" x1="274.78" y1="217.28" x2="306.51" y2="151.33" />
  <line class="cls-1" x1="306.51" y1="151.33" x2="251.97" y2="175.34" />
  <line class="cls-1" x1="251.97" y1="175.34" x2="246.15" y2="157.34" />
  <line class="cls-1" x1="246.15" y1="157.34" x2="262.97" y2="94.63" />
  <line class="cls-1" x1="262.97" y1="94.63" x2="325.82" y2="134.82" />
  <line class="cls-1" x1="262.97" y1="94.63" x2="256.8" y2="11.24" />
  <line class="cls-1" x1="256.8" y1="11.24" x2="359.07" y2="122.1" />
  <line class="cls-2" x1="256.8" y1="11.24" x2="319.71" y2="0.1" />
  <path class="cls-2" d="M256.72,11.14" transform="translate(0.09 0.1)" />
  <line class="cls-1" x1="256.8" y1="11.24" x2="154.43" y2="121.91" />
  <line class="cls-1" x1="154.43" y1="121.91" x2="123.69" y2="65.63" />
  <path class="cls-1" d="M123.6,65.53" transform="translate(0.09 0.1)" />
  <path class="cls-1" d="M123.6,65.53" transform="translate(0.09 0.1)" />
  <line class="cls-1" x1="123.69" y1="65.63" x2="68.01" y2="106.74" />
  <line class="cls-2" x1="68.01" y1="106.74" x2="0.1" y2="40.1" />
  <line class="cls-1" x1="123.69" y1="65.63" x2="256.8" y2="11.24" />
  <line class="cls-1" x1="251.84" y1="63.78" x2="177.23" y2="0.1" />
  <line class="cls-2" x1="123.69" y1="65.63" x2="170.11" y2="0.1" />
  <line class="cls-2" x1="0.1" y1="30.71" x2="25.56" y2="0.1" />
  <line class="cls-2" x1="76.63" y1="0.1" x2="123.69" y2="65.63" />
  <line class="cls-2" x1="68.01" y1="106.74" x2="56.52" y2="0.1" />
  <line class="cls-1" x1="154.43" y1="121.91" x2="246.15" y2="157.34" />
  <line class="cls-1" x1="262.97" y1="94.63" x2="154.43" y2="121.91" />
  <line class="cls-1" x1="154.43" y1="121.91" x2="251.97" y2="175.34" />
  <line class="cls-1" x1="251.97" y1="175.34" x2="274.78" y2="217.28" />
  <line class="cls-1" x1="68.01" y1="106.74" x2="154.43" y2="121.91" />
  <line class="cls-1" x1="154.43" y1="121.91" x2="114.96" y2="145.19" />
  <line class="cls-1" x1="114.96" y1="145.19" x2="104.19" y2="119.56" />
  <line class="cls-1" x1="104.19" y1="119.56" x2="68.01" y2="106.74" />
  <line class="cls-1" x1="104.19" y1="119.56" x2="123.69" y2="65.63" />
  <line class="cls-1" x1="104.19" y1="119.56" x2="154.43" y2="121.91" />
  <line class="cls-1" x1="114.96" y1="145.19" x2="172.79" y2="161.67" />
  <line class="cls-1" x1="154.43" y1="121.91" x2="172.79" y2="161.67" />
  <line class="cls-1" x1="172.79" y1="161.67" x2="251.97" y2="175.34" />
  <line class="cls-1" x1="245.02" y1="156.45" x2="172.79" y2="161.67" />
  <line class="cls-1" x1="172.79" y1="161.67" x2="178.51" y2="229.65" />
  <line class="cls-1" x1="172.79" y1="161.67" x2="255.36" y2="290.04" />
  <line class="cls-1" x1="255.36" y1="290.04" x2="178.51" y2="229.65" />
  <line class="cls-1" x1="178.51" y1="229.65" x2="186.03" y2="242.99" />
  <line class="cls-1" x1="186.03" y1="242.99" x2="255.36" y2="290.04" />
  <line class="cls-1" x1="255.36" y1="290.04" x2="237.87" y2="349.79" />
  <line class="cls-1" x1="186.03" y1="242.99" x2="251.97" y2="175.34" />
  <line class="cls-1" x1="251.97" y1="175.34" x2="178.51" y2="229.65" />
  <line class="cls-1" x1="274.78" y1="217.28" x2="178.51" y2="229.65" />
  <line class="cls-1" x1="274.78" y1="217.28" x2="255.36" y2="290.04" />
  <line class="cls-1" x1="255.36" y1="290.04" x2="362.86" y2="202.71" />
  <line class="cls-1" x1="254.2" y1="289.25" x2="385.74" y2="303.13" />
  <line class="cls-1" x1="385.74" y1="303.13" x2="349.26" y2="335.48" />
  <line class="cls-1" x1="349.26" y1="335.48" x2="255.36" y2="290.04" />
  <line class="cls-1" x1="237.87" y1="349.79" x2="349.26" y2="335.48" />
  <line class="cls-1" x1="218.63" y1="389.66" x2="349.26" y2="335.48" />
  <line class="cls-1" x1="237.87" y1="349.79" x2="186.03" y2="242.99" />
  <line class="cls-1" x1="237.87" y1="349.79" x2="218.63" y2="389.66" />
  <line class="cls-1" x1="237.87" y1="349.79" x2="114.51" y2="353.64" />
  <line class="cls-1" x1="82.27" y1="283.85" x2="114.51" y2="353.64" />
  <line class="cls-1" x1="82.27" y1="283.85" x2="186.03" y2="242.99" />
  <line class="cls-1" x1="178.51" y1="229.65" x2="82.27" y2="283.85" />
  <line class="cls-2" x1="28.3" y1="185.05" x2="82.27" y2="283.85" />
  <line class="cls-1" x1="172.79" y1="161.67" x2="28.3" y2="185.05" />
  <line class="cls-1" x1="28.3" y1="185.05" x2="178.51" y2="229.65" />
  <line class="cls-1" x1="114.96" y1="145.19" x2="28.3" y2="185.05" />
  <line class="cls-1" x1="104.19" y1="119.56" x2="28.3" y2="185.05" />
  <line class="cls-2" x1="28.3" y1="185.05" x2="68.01" y2="106.74" />
  <line class="cls-2" x1="68.01" y1="106.74" x2="0.1" y2="88" />
  <line class="cls-2" x1="0.1" y1="142.25" x2="28.3" y2="185.05" />
  <line class="cls-2" x1="28.3" y1="185.05" x2="0.1" y2="263.05" />
  <path class="cls-2" d="M28.22,185" transform="translate(0.09 0.1)" />
  <line class="cls-2" x1="0.1" y1="294.08" x2="12.98" y2="324.71" />
  <line class="cls-2" x1="12.98" y1="324.71" x2="82.27" y2="283.85" />
  <line class="cls-2" x1="82.27" y1="283.85" x2="0.09" y2="280.01" />
  <path class="cls-2" d="M12.89,324.62" transform="translate(0.09 0.1)" />
  <line class="cls-1" x1="12.98" y1="324.71" x2="114.51" y2="353.64" />
  <line class="cls-1" x1="114.51" y1="353.64" x2="137.75" y2="466.4" />
  <line class="cls-1" x1="137.75" y1="466.4" x2="218.63" y2="389.66" />
  <line class="cls-2" x1="137.75" y1="466.4" x2="0.1" y2="555.06" />
  <line class="cls-1" x1="113.28" y1="355.85" x2="0.1" y2="532.14" />
  <line class="cls-2" x1="12.98" y1="324.71" x2="0.1" y2="411.17" />
  <path class="cls-2" d="M12.89,324.62" transform="translate(0.09 0.1)" />
  <line class="cls-1" x1="458.43" y1="74.4" x2="584.82" y2="0.1" />
  <line class="cls-1" x1="546.35" y1="69.32" x2="601.53" y2="0.1" />
  <path class="cls-3" d="M236.68,349.13a1.24,1.24,0,1,1,2.2,1.17A1.24,1.24,0,0,1,236.68,349.13Z" transform="translate(0.09 0.1)" />
  <path class="cls-3" d="M26,183.77a2.42,2.42,0,0,1,3.32-1,2.5,2.5,0,0,1,1.1,3.38,2.56,2.56,0,0,1-3.44,1A2.47,2.47,0,0,1,26,183.77Z" transform="translate(0.09 0.1)" />
  <path class="cls-3" d="M456,73.22a2.54,2.54,0,1,1,4.49,2.39A2.54,2.54,0,0,1,456,73.22Z" transform="translate(0.09 0.1)" />
  <path class="cls-3" d="M448.27,271.11a1.66,1.66,0,1,1,.69,2.24A1.67,1.67,0,0,1,448.27,271.11Z" transform="translate(0.09 0.1)" />
  <path class="cls-3" d="M347.4,334.45a1.89,1.89,0,0,1,3.33,1.77A1.89,1.89,0,0,1,347.4,334.45Z" transform="translate(0.09 0.1)" />
  <path class="cls-3" d="M383.12,301.65a2.89,2.89,0,0,1,5.1,2.71A2.89,2.89,0,0,1,383.12,301.65Z" transform="translate(0.09 0.1)" />
  <path class="cls-3" d="M384.63,284.19a1.13,1.13,0,0,1,1.56-.47,1.16,1.16,0,0,1,.51,1.57,1.2,1.2,0,0,1-1.61.5A1.17,1.17,0,0,1,384.63,284.19Z" transform="translate(0.09 0.1)" />
  <path class="cls-3" d="M135.35,465.27a2.47,2.47,0,0,1,3.35-1.09,2.56,2.56,0,0,1,1.06,3.44,2.5,2.5,0,0,1-3.41,1A2.42,2.42,0,0,1,135.35,465.27Z" transform="translate(0.09 0.1)" />
  <path class="cls-3" d="M78.65,282.67a2.54,2.54,0,1,1,1,3.43A2.56,2.56,0,0,1,78.65,282.67Z" transform="translate(0.09 0.1)" />
  <path class="cls-3" d="M260.53,93.44a2.54,2.54,0,1,1,1,3.43A2.54,2.54,0,0,1,260.53,93.44Z" transform="translate(0.09 0.1)" />
  <path class="cls-3" d="M273.32,216.62a1.43,1.43,0,1,1,2.53,1.34A1.43,1.43,0,0,1,273.32,216.62Z" transform="translate(0.09 0.1)" />
  <path class="cls-3" d="M217.18,388.81a1.56,1.56,0,1,1,.65,2.1A1.57,1.57,0,0,1,217.18,388.81Z" transform="translate(0.09 0.1)" />
  <path class="cls-3" d="M112.11,352.49a2.49,2.49,0,0,1,3.36-1.1,2.54,2.54,0,1,1-2.39,4.49A2.47,2.47,0,0,1,112.11,352.49Z" transform="translate(0.09 0.1)" />
  <path class="cls-3" d="M9.81,323.5a2.47,2.47,0,0,1,3.39-1,2.4,2.4,0,0,1,1,3.32,2.49,2.49,0,0,1-3.36,1.1A2.56,2.56,0,0,1,9.81,323.5Z" transform="translate(0.09 0.1)" />
  <path class="cls-3" d="M189.35,128a0.92,0.92,0,0,1,1.26-.41,1,1,0,0,1,.37,1.28,0.92,0.92,0,0,1-1.25.38A0.89,0.89,0,0,1,189.35,128Z" transform="translate(0.09 0.1)" />
  <path class="cls-3" d="M386.73,123a0.92,0.92,0,0,1,1.26-.41,1,1,0,0,1,.37,1.28,0.92,0.92,0,0,1-1.25.38A0.89,0.89,0,0,1,386.73,123Z" transform="translate(0.09 0.1)" />
  <path class="cls-3" d="M214.34,183.79a0.92,0.92,0,0,1,1.26-.41,1,1,0,0,1,.37,1.28,0.92,0.92,0,0,1-1.25.38A0.89,0.89,0,0,1,214.34,183.79Z" transform="translate(0.09 0.1)" />
  <path class="cls-3" d="M143,362.06a0.92,0.92,0,0,1,1.26-.41,1,1,0,0,1,.37,1.28,0.92,0.92,0,0,1-1.25.38A0.89,0.89,0,0,1,143,362.06Z" transform="translate(0.09 0.1)" />
  <path class="cls-3" d="M446,187a0.92,0.92,0,0,1,1.26-.41,1,1,0,0,1,.37,1.28,0.92,0.92,0,0,1-1.25.38A0.89,0.89,0,0,1,446,187Z" transform="translate(0.09 0.1)" />
  <path class="cls-3" d="M562.38,27.36a0.92,0.92,0,0,1,1.26-.41,1,1,0,0,1,.37,1.28,0.92,0.92,0,0,1-1.25.38A0.89,0.89,0,0,1,562.38,27.36Z" transform="translate(0.09 0.1)" />
  <path class="cls-4" d="M506.88,153.7a1.46,1.46,0,0,1,2-.59,1.45,1.45,0,0,1-1.36,2.56A1.47,1.47,0,0,1,506.88,153.7Z" transform="translate(0.09 0.1)" />
  <path class="cls-4" d="M413,167.73a2.35,2.35,0,0,1,3.17-1,2.4,2.4,0,0,1,1,3.23,2.32,2.32,0,0,1-3.18.92A2.27,2.27,0,0,1,413,167.73Z" transform="translate(0.09 0.1)" />
  <path class="cls-4" d="M361.53,201.94a1.41,1.41,0,0,1,1.91-.62,1.45,1.45,0,0,1-1.36,2.56A1.42,1.42,0,0,1,361.53,201.94Z" transform="translate(0.09 0.1)" />
  <path class="cls-4" d="M243.71,156.05a2.64,2.64,0,1,1,4.66,2.48A2.64,2.64,0,0,1,243.71,156.05Z" transform="translate(0.09 0.1)" />
  <path class="cls-4" d="M122.36,64.85a1.38,1.38,0,0,1,1.89-.59,1.43,1.43,0,0,1,.62,1.92,1.46,1.46,0,0,1-2,.59A1.41,1.41,0,0,1,122.36,64.85Z" transform="translate(0.09 0.1)" />
  <path class="cls-4" d="M423.39,75a1.41,1.41,0,0,1,1.92-.63,1.46,1.46,0,0,1,.6,2,1.42,1.42,0,0,1-1.94.55A1.37,1.37,0,0,1,423.39,75Z" transform="translate(0.09 0.1)" />
  <circle class="cls-4" cx="358.98" cy="122" r="1.45" transform="translate(82.91 381.89) rotate(-62.02)" />
  <path class="cls-4" d="M305.16,150.53a1.45,1.45,0,0,1,2.56,1.36A1.45,1.45,0,0,1,305.16,150.53Z" transform="translate(0.09 0.1)" />
  <path class="cls-4" d="M177.17,228.88a1.43,1.43,0,0,1,1.92-.62,1.45,1.45,0,0,1-1.36,2.56A1.42,1.42,0,0,1,177.17,228.88Z" transform="translate(0.09 0.1)" />
  <path class="cls-4" d="M102.85,118.8a1.41,1.41,0,0,1,1.91-.62,1.45,1.45,0,0,1-1.36,2.56A1.42,1.42,0,0,1,102.85,118.8Z" transform="translate(0.09 0.1)" />
  <path class="cls-4" d="M544,68a2.55,2.55,0,1,1,1.05,3.44A2.55,2.55,0,0,1,544,68Z" transform="translate(0.09 0.1)" />
  <path class="cls-4" d="M506.22,105.39a1.42,1.42,0,0,1,1.92-.63,1.45,1.45,0,0,1-1.36,2.56A1.41,1.41,0,0,1,506.22,105.39Z" transform="translate(0.09 0.1)" />
  <path class="cls-4" d="M486.92,152.57a1.44,1.44,0,0,1,1.91-.62A1.45,1.45,0,1,1,486.92,152.57Z" transform="translate(0.09 0.1)" />
  <path class="cls-4" d="M324.5,134a1.38,1.38,0,0,1,1.9-.57,1.41,1.41,0,0,1,.62,1.91,1.46,1.46,0,0,1-2,.61A1.43,1.43,0,0,1,324.5,134Z" transform="translate(0.09 0.1)" />
  <path class="cls-4" d="M253.2,288.83a2.36,2.36,0,0,1,4.16,2.21A2.36,2.36,0,1,1,253.2,288.83Z" transform="translate(0.09 0.1)" />
  <path class="cls-4" d="M184.68,242.23a1.41,1.41,0,0,1,1.91-.62,1.46,1.46,0,0,1,.61,2,1.43,1.43,0,0,1-1.94.56A1.38,1.38,0,0,1,184.68,242.23Z" transform="translate(0.09 0.1)" />
  <path class="cls-4" d="M153.06,121.14a1.45,1.45,0,1,1,.6,2A1.46,1.46,0,0,1,153.06,121.14Z" transform="translate(0.09 0.1)" />
  <path class="cls-4" d="M66.66,106a1.45,1.45,0,0,1,2-.6,1.44,1.44,0,0,1-1.36,2.55A1.45,1.45,0,0,1,66.66,106Z" transform="translate(0.09 0.1)" />
  <path class="cls-4" d="M596.83,60.09A1.43,1.43,0,1,1,597.4,62,1.45,1.45,0,0,1,596.83,60.09Z" transform="translate(0.09 0.1)" />
  <path class="cls-4" d="M397,99.62a1.46,1.46,0,0,1,2-.59,1.45,1.45,0,0,1-1.36,2.55A1.46,1.46,0,0,1,397,99.62Z" transform="translate(0.09 0.1)" />
  <ellipse class="cls-4" cx="256.72" cy="11.14" rx="1.44" ry="1.45" transform="translate(126.53 232.72) rotate(-62.02)" />
  <path class="cls-4" d="M250.79,63a1.43,1.43,0,1,1,2.52,1.34A1.43,1.43,0,0,1,250.79,63Z" transform="translate(0.09 0.1)" />
  <path class="cls-4" d="M250.61,174.55a1.45,1.45,0,1,1,.61,2A1.46,1.46,0,0,1,250.61,174.55Z" transform="translate(0.09 0.1)" />
  <path class="cls-4" d="M171.45,160.9a1.42,1.42,0,0,1,1.92-.63,1.45,1.45,0,1,1-1.36,2.56A1.41,1.41,0,0,1,171.45,160.9Z" transform="translate(0.09 0.1)" />
  <path class="cls-4" d="M113.63,144.41a1.41,1.41,0,0,1,1.93-.56,1.37,1.37,0,0,1,.58,1.89,1.42,1.42,0,0,1-1.92.63A1.46,1.46,0,0,1,113.63,144.41Z" transform="translate(0.09 0.1)" />
  <path class="cls-4" d="M129,105.51a0.52,0.52,0,0,1,.72-0.24,0.54,0.54,0,0,1,.21.73,0.53,0.53,0,0,1-.71.22A0.5,0.5,0,0,1,129,105.51Z" transform="translate(0.09 0.1)" />
  <path class="cls-4" d="M195.17,220.92a0.52,0.52,0,0,1,.72-0.24,0.54,0.54,0,0,1,.21.73,0.53,0.53,0,0,1-.71.22A0.5,0.5,0,0,1,195.17,220.92Z" transform="translate(0.09 0.1)" />
  <path class="cls-4" d="M148.07,209.31a0.52,0.52,0,0,1,.72-0.24,0.54,0.54,0,0,1,.21.73,0.53,0.53,0,0,1-.71.22A0.5,0.5,0,0,1,148.07,209.31Z" transform="translate(0.09 0.1)" />
  <path class="cls-4" d="M327.24,75.4a0.9,0.9,0,0,1,1.24-.41,0.94,0.94,0,0,1,.36,1.26,0.91,0.91,0,0,1-1.23.37A0.87,0.87,0,0,1,327.24,75.4Z" transform="translate(0.09 0.1)" />
  <path class="cls-4" d="M42.34,271.37a0.9,0.9,0,0,1,1.24-.41,0.94,0.94,0,0,1,.36,1.26,0.91,0.91,0,0,1-1.23.37A0.87,0.87,0,0,1,42.34,271.37Z" transform="translate(0.09 0.1)" />
  <path class="cls-4" d="M100.09,62.65a0.52,0.52,0,0,1,.72-0.24,0.54,0.54,0,0,1,.21.73,0.53,0.53,0,0,1-.71.22A0.5,0.5,0,0,1,100.09,62.65Z" transform="translate(0.09 0.1)" />
  <path class="cls-4" d="M95.86,7.64A0.79,0.79,0,0,1,97,7.29a0.83,0.83,0,0,1,.32,1.11,0.8,0.8,0,0,1-1.08.33A0.77,0.77,0,0,1,95.86,7.64Z" transform="translate(0.09 0.1)" />
  <path class="cls-4" d="M18.06,32.37a0.52,0.52,0,0,1,.72-0.24,0.54,0.54,0,0,1,.21.73,0.53,0.53,0,0,1-.71.22A0.5,0.5,0,0,1,18.06,32.37Z" transform="translate(0.09 0.1)" />
</svg>